<svg width="150" height="150" viewBox="0 0 150 150" fill="none" xmlns="http://www.w3.org/2000/svg">
<g clip-path="url(#clip0_4_68)">
<g filter="url(#filter0_n_4_68)">
<path d="M59.5432 0C60.2112 0.538238 61.9142 2.71406 62.4964 3.44343C66.3125 8.26046 70.0211 13.1601 73.6196 18.1389C75.7655 21.0889 78.1067 23.9031 79.5223 27.2474C80.0742 28.5525 80.7212 29.8812 81.3147 31.1732C83.5406 35.994 85.726 40.8334 87.8686 45.6909C89.0686 48.3524 90.2397 51.0261 91.3831 53.7115C91.8293 54.7571 92.7229 56.7518 92.9609 57.7556C93.1051 58.3626 93.2033 60.7002 93.2438 61.4254C93.3944 64.2059 93.5278 66.9873 93.6442 69.7695C93.7734 72.4504 93.9677 75.693 93.8662 78.337C93.8556 78.607 91.4727 83.4822 91.1856 84.09C89.7614 87.1174 88.3639 90.1575 86.9921 93.2103C86.2181 94.9204 85.4206 96.6581 84.6819 98.383C84.3466 99.1613 84.0798 100.434 83.8566 101.297L82.5894 106.157C81.8005 109.171 81.0404 112.193 80.3091 115.222C80.0785 116.164 79.85 117.109 79.6141 118.05C78.9821 120.583 78.7109 123.209 78.3629 125.796C77.8344 129.715 77.3401 133.638 76.88 137.564C76.6676 140.777 76.1936 144.11 75.9117 147.323C75.8391 148.147 76.1477 150.652 74.51 149.84C74.1577 149.664 74.0541 144.451 73.8705 143.802C72.8738 134.161 71.8534 124.707 69.4891 115.287C68.812 112.508 68.1141 109.733 67.3954 106.964C66.6302 104.031 65.8078 100.265 64.7379 97.4618C63.1843 93.3903 61.1897 89.3358 59.5481 85.2897C58.7302 83.2747 57.6351 81.321 56.9172 79.2636C56.6441 78.4344 56.285 74.6732 56.1586 73.5561C55.8735 71.0851 55.6199 68.6102 55.3981 66.1324C55.2594 64.6142 55.0456 62.9307 55.0955 61.4216C55.218 57.7299 55.4516 54.0317 55.6915 50.3469C56.1425 43.3265 56.6377 36.3089 57.1771 29.2946C57.6387 22.7031 58.1346 16.114 58.6649 9.52764C58.8979 6.70017 59.1057 2.67001 59.5432 0Z" fill="#232C2B"/>
<path d="M74.51 149.84C73.9277 149.111 85.5047 60.1548 59.5432 0C59.1057 2.67001 58.8979 6.70017 58.6649 9.52764C58.1346 16.114 57.6387 22.7031 57.1771 29.2946C56.6377 36.3089 56.1425 43.3265 55.6915 50.3469C55.4516 54.0317 55.218 57.7299 55.0955 61.4216C55.0456 62.9307 55.2594 64.6142 55.3981 66.1324C55.6199 68.6102 55.8735 71.0851 56.1586 73.5561C56.285 74.6732 56.6441 78.4344 56.9172 79.2636C57.6351 81.321 58.7302 83.2747 59.5481 85.2897C61.1897 89.3358 63.1843 93.3903 64.7379 97.4618C65.8078 100.265 66.6302 104.031 67.3954 106.964C68.1141 109.733 68.812 112.508 69.4891 115.287C71.8534 124.707 72.8738 134.161 73.8705 143.802C74.0541 144.451 74.1577 149.664 74.51 149.84Z" fill="#32453E"/>
<path d="M76.1768 84.02C76.2233 84.002 76.3512 33.0902 59.5433 0C59.1058 2.67001 58.898 6.70017 58.665 9.52764C58.1347 16.114 57.6388 22.7031 57.1772 29.2946C56.6377 36.3089 55.6915 50.3469 55.6915 50.3469L66.5002 65.2564C66.5002 65.2564 76.2379 83.9476 76.1768 84.02Z" fill="#44514D"/>
<path d="M132.567 38.7238L132.707 38.6577C132.805 39.0498 130.89 51.3866 130.652 53.0418C129.746 59.3953 128.794 65.7421 127.795 72.0818C127.295 75.2896 126.8 78.5849 126.22 81.7817C126.068 82.6236 125.37 84.5751 125.073 85.4889L123.031 91.7417C121.815 95.5654 120.539 99.37 119.199 103.153C118.712 104.532 118.079 106.722 117.454 107.966C115.12 112.622 112.755 117.279 110.349 121.899C108.804 124.634 107.121 127.341 105.72 130.152C103.07 135.467 100.589 140.874 98.1771 146.299C97.8515 147.032 97.3337 148.33 96.8726 148.949C93.9794 149.288 91.0767 149.534 88.1675 149.689C86.3516 149.802 84.2356 149.959 82.44 149.931C80.7788 149.965 78.4643 150.049 76.8384 149.914C77.6177 142.783 78.5828 135.672 79.7315 128.59C80.0582 126.539 80.3497 124.465 80.7169 122.405C81.587 117.515 83.0634 112.637 84.3178 107.825C84.8975 105.601 85.4644 103.294 86.1007 101.111C86.911 98.3344 88.4205 95.3145 89.6184 92.6513C93.9079 83.0514 98.8647 73.7595 104.453 64.8423C105.449 63.2329 107.255 60.2132 108.364 58.7784C109.127 57.7905 112.054 55.2009 113.135 54.2204C115.455 52.1388 117.806 50.0893 120.184 48.0728C121.226 47.1734 122.889 45.5103 123.937 44.815C126.58 43.0611 129.813 40.1338 132.567 38.7238Z" fill="#25332D"/>
<path d="M76.8384 149.914C77.6177 142.783 78.5828 135.672 79.7315 128.59C80.0582 126.539 80.3497 124.465 80.7169 122.405C81.587 117.515 83.0634 112.637 84.3178 107.825C84.8975 105.601 85.4644 103.294 86.1007 101.111C86.911 98.3344 88.4205 95.3144 89.6184 92.6513C93.9079 83.0513 98.8647 73.7595 104.453 64.8423C105.449 63.2329 107.255 60.2132 108.364 58.7783C109.127 57.7905 112.054 55.2009 113.135 54.2204C115.455 52.1387 117.806 50.0892 120.184 48.0728C121.226 47.1734 122.889 45.5103 123.937 44.815C126.58 43.0611 129.813 40.1338 132.567 38.7238C132.24 39.4686 131.251 40.9947 130.795 41.7329C129.796 43.3352 128.825 44.9555 127.886 46.593C124.457 52.574 121.179 58.6398 118.059 64.7849C113.061 74.4774 108.367 84.3199 103.984 94.3C97.0711 109.75 90.8002 125.567 85.9128 141.769C85.7132 142.431 85.4665 143.243 85.3416 143.923C84.9648 145.978 84.1524 147.85 83.6324 149.865C83.2471 149.864 82.788 149.821 82.44 149.931C80.7788 149.965 78.4643 150.049 76.8384 149.914Z" fill="#4A5E53"/>
<path d="M11.4407 38.6062C12.4018 38.9307 14.2522 40.2493 15.1399 40.8141C24.0977 46.5133 32.0668 53.6184 40.0861 60.5194C41.1993 61.4773 42.2523 63.0381 43.1864 64.2043C44.3249 65.6255 45.4422 67.1049 46.5575 68.5508C48.2946 70.8335 49.9922 73.1453 51.6495 75.4855C52.2479 76.3241 54.0959 78.8348 54.4725 79.5919C55.6993 82.0602 57.1998 85.0907 58.2692 87.6448C59.6908 91.0407 61.6591 95.1301 62.8751 98.5408C63.7798 101.079 64.8224 105.063 65.5163 107.731C66.5825 111.831 67.9872 116.584 68.8541 120.704C69.7225 124.83 70.4783 129.908 71.1173 134.074C71.6848 137.689 72.1889 141.315 72.6289 144.948C72.7961 146.343 73.1136 148.581 73.1499 149.935C72.0168 149.994 69.5025 149.837 68.2731 149.754C66.4277 149.632 63.6682 149.561 61.8956 149.263C61.0149 147.717 60.1816 145.732 59.3122 144.125C56.9766 139.811 54.5066 135.064 51.8007 130.998L39.7692 113.281C38.5606 111.538 37.3405 109.802 36.109 108.074C35.5759 107.322 34.199 105.465 33.8457 104.728C32.3507 101.613 30.8477 98.2856 29.4972 95.1121L26.7777 88.7069C26.326 87.6596 25.5351 86.0183 25.1959 85.0145C24.5104 82.9867 23.9102 80.8054 23.2583 78.7511C21.054 71.7752 18.9642 64.7647 16.9897 57.7218L13.5076 45.7916C12.8484 43.5576 11.9644 40.838 11.4407 38.6062Z" fill="#36443F"/>
<path d="M11.4407 38.6062C12.4018 38.9307 14.2522 40.2493 15.1399 40.8141C24.0977 46.5133 32.0668 53.6184 40.0861 60.5194C41.1993 61.4773 42.2523 63.0381 43.1864 64.2043C44.3249 65.6255 45.4422 67.1049 46.5575 68.5508C48.2946 70.8335 49.9922 73.1453 51.6495 75.4855C52.2479 76.3241 54.0959 78.8348 54.4725 79.5919C55.6993 82.0602 57.1998 85.0907 58.2692 87.6448C59.6908 91.0407 61.6591 95.1301 62.8751 98.5408C63.7798 101.079 64.8224 105.063 65.5163 107.731C66.5825 111.831 67.9872 116.584 68.8541 120.704C69.7225 124.83 70.4783 129.907 71.1173 134.074C71.6848 137.689 72.1889 141.315 72.6289 144.948C72.7961 146.343 73.1136 148.581 73.1499 149.935C72.0168 149.994 69.5025 149.837 68.2731 149.754C66.4277 149.632 60.9071 120.316 52.4233 102.98C43.944 85.6524 25.1959 61.7112 25.1959 61.7112L13.5076 45.7916C12.8484 43.5576 11.9644 40.838 11.4407 38.6062Z" fill="#26302E"/>
<path d="M138.559 90.9941C138.493 91.8041 133.074 102.885 132.336 104.494C130.624 108.222 129.059 112.06 127.237 115.732C125.441 119.351 123.447 122.899 121.555 126.47C120.611 128.25 119.532 130.81 118.351 132.35C116.929 134.206 106.677 146.321 105.318 147.085C103.56 148.072 100.623 148.433 98.5935 148.725C98.5295 148.095 102.055 141.264 102.551 140.239C107.004 131.047 112.273 122.269 117.742 113.643C118.172 112.964 119.572 111.538 120.168 110.875L124.36 106.21C128.869 101.22 133.804 95.757 138.559 90.9941Z" fill="#2E3F38"/>
<path d="M21.191 104.112C21.8782 104.48 24.5831 106.607 25.3261 107.178C29.4623 110.361 33.5078 113.659 37.4579 117.066C38.7781 118.201 41.0719 120.061 42.165 121.236C43.2456 122.398 44.8425 124.582 45.8717 125.888C50.4825 131.735 54.4562 138.037 58.0785 144.526C58.6111 145.48 60.1924 148.167 60.495 149.111C59.2565 149.216 53.2995 148.08 52.4544 147.211C49.7365 144.417 47.2617 141.262 44.5863 138.406C41.9005 135.539 39.7178 131.977 37.4912 128.73C33.9752 123.638 30.5228 118.501 27.1351 113.323L23.1439 107.214C22.5639 106.322 21.6504 105.01 21.191 104.112Z" fill="#2E3F38"/>
</g>
<mask id="mask0_4_68" style="mask-type:alpha" maskUnits="userSpaceOnUse" x="11" y="0" width="128" height="150">
<path d="M59.5432 0C60.2112 0.538238 61.9142 2.71406 62.4964 3.44343C66.3125 8.26046 70.0211 13.1601 73.6196 18.1389C75.7655 21.0889 78.1067 23.9031 79.5223 27.2474C80.0742 28.5525 80.7212 29.8812 81.3147 31.1732C83.5406 35.994 85.726 40.8334 87.8686 45.6909C89.0686 48.3524 90.2397 51.0261 91.3831 53.7115C91.8293 54.7571 92.7229 56.7518 92.9609 57.7556C93.1051 58.3626 93.2033 60.7002 93.2438 61.4254C93.3944 64.2059 93.5278 66.9873 93.6442 69.7695C93.7734 72.4504 93.9677 75.693 93.8662 78.337C93.8556 78.607 91.4727 83.4822 91.1856 84.09C89.7614 87.1174 88.3639 90.1575 86.9921 93.2103C86.2181 94.9204 85.4206 96.6581 84.6819 98.383C84.3466 99.1613 84.0798 100.434 83.8566 101.297L82.5894 106.157C81.8005 109.171 81.0404 112.193 80.3091 115.222C80.0785 116.164 79.85 117.109 79.6141 118.05C78.9821 120.583 78.7109 123.209 78.3629 125.796C77.8344 129.715 77.3401 133.638 76.88 137.564C76.6676 140.777 76.1936 144.11 75.9117 147.323C75.8391 148.147 76.1477 150.652 74.51 149.84C74.1577 149.664 74.0541 144.451 73.8705 143.802C72.8738 134.161 71.8534 124.707 69.4891 115.287C68.812 112.508 68.1141 109.733 67.3954 106.964C66.6302 104.031 65.8078 100.265 64.7379 97.4618C63.1843 93.3903 61.1897 89.3358 59.5481 85.2897C58.7302 83.2747 57.6351 81.321 56.9172 79.2636C56.6441 78.4344 56.285 74.6732 56.1586 73.5561C55.8735 71.0851 55.6199 68.6102 55.3981 66.1324C55.2594 64.6142 55.0456 62.9307 55.0955 61.4216C55.218 57.7299 55.4516 54.0317 55.6915 50.3469C56.1425 43.3265 56.6377 36.3089 57.1771 29.2946C57.6387 22.7031 58.1346 16.114 58.6649 9.52764C58.8979 6.70017 59.1057 2.67001 59.5432 0Z" fill="#232C2B"/>
<path d="M74.51 149.84C73.9277 149.111 85.5047 60.1548 59.5432 0C59.1057 2.67001 58.8979 6.70017 58.6649 9.52764C58.1346 16.114 57.6387 22.7031 57.1771 29.2946C56.6377 36.3089 56.1425 43.3265 55.6915 50.3469C55.4516 54.0317 55.218 57.7299 55.0955 61.4216C55.0456 62.9307 55.2594 64.6142 55.3981 66.1324C55.6199 68.6102 55.8735 71.0851 56.1586 73.5561C56.285 74.6732 56.6441 78.4344 56.9172 79.2636C57.6351 81.321 58.7302 83.2747 59.5481 85.2897C61.1897 89.3358 63.1843 93.3903 64.7379 97.4618C65.8078 100.265 66.6302 104.031 67.3954 106.964C68.1141 109.733 68.812 112.508 69.4891 115.287C71.8534 124.707 72.8738 134.161 73.8705 143.802C74.0541 144.451 74.1577 149.664 74.51 149.84Z" fill="#32453E"/>
<path d="M76.1768 84.02C76.2233 84.002 76.3512 33.0902 59.5433 0C59.1058 2.67001 58.898 6.70017 58.665 9.52764C58.1347 16.114 57.6388 22.7031 57.1772 29.2946C56.6377 36.3089 55.6915 50.3469 55.6915 50.3469L66.5002 65.2564C66.5002 65.2564 76.2379 83.9476 76.1768 84.02Z" fill="#44514D"/>
<path d="M132.567 38.7238L132.707 38.6577C132.805 39.0498 130.89 51.3866 130.652 53.0418C129.746 59.3953 128.794 65.7421 127.795 72.0818C127.295 75.2896 126.8 78.5849 126.22 81.7817C126.068 82.6236 125.37 84.5751 125.073 85.4889L123.031 91.7417C121.815 95.5654 120.539 99.37 119.199 103.153C118.712 104.532 118.079 106.722 117.454 107.966C115.12 112.622 112.755 117.279 110.349 121.899C108.804 124.634 107.121 127.341 105.72 130.152C103.07 135.467 100.589 140.874 98.1771 146.299C97.8515 147.032 97.3337 148.33 96.8726 148.949C93.9794 149.288 91.0767 149.534 88.1675 149.689C86.3516 149.802 84.2356 149.959 82.44 149.931C80.7788 149.965 78.4643 150.049 76.8384 149.914C77.6177 142.783 78.5828 135.672 79.7315 128.59C80.0582 126.539 80.3497 124.465 80.7169 122.405C81.587 117.515 83.0634 112.637 84.3178 107.825C84.8975 105.601 85.4644 103.294 86.1007 101.111C86.911 98.3344 88.4205 95.3145 89.6184 92.6513C93.9079 83.0514 98.8647 73.7595 104.453 64.8423C105.449 63.2329 107.255 60.2132 108.364 58.7784C109.127 57.7905 112.054 55.2009 113.135 54.2204C115.455 52.1388 117.806 50.0893 120.184 48.0728C121.226 47.1734 122.889 45.5103 123.937 44.815C126.58 43.0611 129.813 40.1338 132.567 38.7238Z" fill="#25332D"/>
<path d="M76.8384 149.914C77.6177 142.783 78.5828 135.672 79.7315 128.59C80.0582 126.539 80.3497 124.465 80.7169 122.405C81.587 117.515 83.0634 112.637 84.3178 107.825C84.8975 105.601 85.4644 103.294 86.1007 101.111C86.911 98.3344 88.4205 95.3144 89.6184 92.6513C93.9079 83.0513 98.8647 73.7595 104.453 64.8423C105.449 63.2329 107.255 60.2132 108.364 58.7783C109.127 57.7905 112.054 55.2009 113.135 54.2204C115.455 52.1387 117.806 50.0892 120.184 48.0728C121.226 47.1734 122.889 45.5103 123.937 44.815C126.58 43.0611 129.813 40.1338 132.567 38.7238C132.24 39.4686 131.251 40.9947 130.795 41.7329C129.796 43.3352 128.825 44.9555 127.886 46.593C124.457 52.574 121.179 58.6398 118.059 64.7849C113.061 74.4774 108.367 84.3199 103.984 94.3C97.0711 109.75 90.8002 125.567 85.9128 141.769C85.7132 142.431 85.4665 143.243 85.3416 143.923C84.9648 145.978 84.1524 147.85 83.6324 149.865C83.2471 149.864 82.788 149.821 82.44 149.931C80.7788 149.965 78.4643 150.049 76.8384 149.914Z" fill="#4A5E53"/>
<path d="M11.4407 38.6062C12.4018 38.9307 14.2522 40.2493 15.1399 40.8141C24.0977 46.5133 32.0668 53.6184 40.0861 60.5194C41.1993 61.4773 42.2523 63.0381 43.1864 64.2043C44.3249 65.6255 45.4422 67.1049 46.5575 68.5508C48.2946 70.8335 49.9922 73.1453 51.6495 75.4855C52.2479 76.3241 54.0959 78.8348 54.4725 79.5919C55.6993 82.0602 57.1998 85.0907 58.2692 87.6448C59.6908 91.0407 61.6591 95.1301 62.8751 98.5408C63.7798 101.079 64.8224 105.063 65.5163 107.731C66.5825 111.831 67.9872 116.584 68.8541 120.704C69.7225 124.83 70.4783 129.908 71.1173 134.074C71.6848 137.689 72.1889 141.315 72.6289 144.948C72.7961 146.343 73.1136 148.581 73.1499 149.935C72.0168 149.994 69.5025 149.837 68.2731 149.754C66.4277 149.632 63.6682 149.561 61.8956 149.263C61.0149 147.717 60.1816 145.732 59.3122 144.125C56.9766 139.811 54.5066 135.064 51.8007 130.998L39.7692 113.281C38.5606 111.538 37.3405 109.802 36.109 108.074C35.5759 107.322 34.199 105.465 33.8457 104.728C32.3507 101.613 30.8477 98.2856 29.4972 95.1121L26.7777 88.7069C26.326 87.6596 25.5351 86.0183 25.1959 85.0145C24.5104 82.9867 23.9102 80.8054 23.2583 78.7511C21.054 71.7752 18.9642 64.7647 16.9897 57.7218L13.5076 45.7916C12.8484 43.5576 11.9644 40.838 11.4407 38.6062Z" fill="#36443F"/>
<path d="M11.4407 38.6062C12.4018 38.9307 14.2522 40.2493 15.1399 40.8141C24.0977 46.5133 32.0668 53.6184 40.0861 60.5194C41.1993 61.4773 42.2523 63.0381 43.1864 64.2043C44.3249 65.6255 45.4422 67.1049 46.5575 68.5508C48.2946 70.8335 49.9922 73.1453 51.6495 75.4855C52.2479 76.3241 54.0959 78.8348 54.4725 79.5919C55.6993 82.0602 57.1998 85.0907 58.2692 87.6448C59.6908 91.0407 61.6591 95.1301 62.8751 98.5408C63.7798 101.079 64.8224 105.063 65.5163 107.731C66.5825 111.831 67.9872 116.584 68.8541 120.704C69.7225 124.83 70.4783 129.907 71.1173 134.074C71.6848 137.689 72.1889 141.315 72.6289 144.948C72.7961 146.343 73.1136 148.581 73.1499 149.935C72.0168 149.994 69.5025 149.837 68.2731 149.754C66.4277 149.632 60.9071 120.316 52.4233 102.98C43.944 85.6524 25.1959 61.7112 25.1959 61.7112L13.5076 45.7916C12.8484 43.5576 11.9644 40.838 11.4407 38.6062Z" fill="#26302E"/>
<path d="M138.559 90.9941C138.493 91.8041 133.074 102.885 132.336 104.494C130.624 108.222 129.059 112.06 127.237 115.732C125.441 119.351 123.447 122.899 121.555 126.47C120.611 128.25 119.532 130.81 118.351 132.35C116.929 134.206 106.677 146.321 105.318 147.085C103.56 148.072 100.623 148.433 98.5935 148.725C98.5295 148.095 102.055 141.264 102.551 140.239C107.004 131.047 112.273 122.269 117.742 113.643C118.172 112.964 119.572 111.538 120.168 110.875L124.36 106.21C128.869 101.22 133.804 95.757 138.559 90.9941Z" fill="#2E3F38"/>
<path d="M21.191 104.112C21.8782 104.48 24.5831 106.607 25.3261 107.178C29.4623 110.361 33.5078 113.659 37.4579 117.066C38.7781 118.201 41.0719 120.061 42.165 121.236C43.2456 122.398 44.8425 124.582 45.8717 125.888C50.4825 131.735 54.4562 138.037 58.0785 144.526C58.6111 145.48 60.1924 148.167 60.495 149.111C59.2565 149.216 53.2995 148.08 52.4544 147.211C49.7365 144.417 47.2617 141.262 44.5863 138.406C41.9005 135.539 39.7178 131.977 37.4912 128.73C33.9752 123.638 30.5228 118.501 27.1351 113.323L23.1439 107.214C22.5639 106.322 21.6504 105.01 21.191 104.112Z" fill="#2E3F38"/>
</mask>
<g mask="url(#mask0_4_68)">
<rect x="4.69159" y="0.0593872" width="139.309" height="152.011" fill="url(#paint0_radial_4_68)" fill-opacity="0.53"/>
</g>
</g>
<defs>
<filter id="filter0_n_4_68" x="11.4407" y="0" width="127.119" height="150" filterUnits="userSpaceOnUse" color-interpolation-filters="sRGB">
<feFlood flood-opacity="0" result="BackgroundImageFix"/>
<feBlend mode="normal" in="SourceGraphic" in2="BackgroundImageFix" result="shape"/>
<feTurbulence type="fractalNoise" baseFrequency="1.8441401720046997 1.8441401720046997" stitchTiles="stitch" numOctaves="3" result="noise" seed="9169" />
<feColorMatrix in="noise" type="luminanceToAlpha" result="alphaNoise" />
<feComponentTransfer in="alphaNoise" result="coloredNoise1">
<feFuncA type="discrete" tableValues="0 0 0 0 0 0 0 0 0 0 0 0 0 0 0 0 1 1 1 1 1 1 1 1 1 1 1 1 1 1 1 1 1 1 0 0 0 0 0 0 0 0 0 0 0 0 0 0 0 0 0 0 0 0 0 0 0 0 0 0 0 0 0 0 0 0 0 0 0 0 0 0 0 0 0 0 0 0 0 0 0 0 0 0 0 0 0 0 0 0 0 0 0 0 0 0 0 0 0 0 "/>
</feComponentTransfer>
<feComposite operator="in" in2="shape" in="coloredNoise1" result="noise1Clipped" />
<feFlood flood-color="rgba(65, 105, 88, 0.44)" result="color1Flood" />
<feComposite operator="in" in2="noise1Clipped" in="color1Flood" result="color1" />
<feMerge result="effect1_noise_4_68">
<feMergeNode in="shape" />
<feMergeNode in="color1" />
</feMerge>
</filter>
<radialGradient id="paint0_radial_4_68" cx="0" cy="0" r="1" gradientTransform="matrix(0.348717 -61.7383 99.996 0.55566 80.7099 140.138)" gradientUnits="userSpaceOnUse">
<stop offset="0.000404775" stop-color="#00C26F" stop-opacity="0.5"/>
<stop offset="1" stop-color="#416958" stop-opacity="0"/>
</radialGradient>
<clipPath id="clip0_4_68">
<rect width="127.119" height="150" fill="white" transform="translate(11.4407)"/>
</clipPath>
</defs>
</svg>
