<svg width="445" height="114" viewBox="0 0 445 114" fill="none" xmlns="http://www.w3.org/2000/svg">
<g clip-path="url(#clip0_1_45)">
<g filter="url(#filter0_n_1_45)">
<path d="M40.2725 10C40.6929 10.3373 41.7647 11.7008 42.1311 12.1579C44.5327 15.1766 46.8667 18.247 49.1313 21.3671C50.4817 23.2157 51.9551 24.9793 52.846 27.0751C53.1934 27.8929 53.6005 28.7256 53.9741 29.5352C55.3749 32.5563 56.7502 35.5889 58.0986 38.633C58.8538 40.3009 59.5909 41.9763 60.3104 43.6592C60.5913 44.3144 61.1536 45.5645 61.3034 46.1935C61.3941 46.5739 61.4559 48.0388 61.4815 48.4932C61.5762 50.2357 61.6602 51.9787 61.7334 53.7222C61.8147 55.4023 61.937 57.4343 61.8732 59.0912C61.8664 59.2604 60.3669 62.3155 60.1861 62.6964C59.2899 64.5936 58.4104 66.4987 57.547 68.4118C57.0599 69.4835 56.5581 70.5724 56.0931 71.6534C55.8822 72.1411 55.7142 72.9387 55.5738 73.4795L54.7763 76.5253C54.2798 78.4139 53.8014 80.3077 53.3412 82.2055C53.1961 82.7961 53.0523 83.388 52.9038 83.978C52.5061 85.5652 52.3354 87.2109 52.1164 88.832C51.7838 91.2879 51.4727 93.7465 51.1832 96.207C51.0495 98.2203 50.7512 100.309 50.5738 102.323C50.5281 102.839 50.7223 104.409 49.6916 103.9C49.4699 103.79 49.4047 100.523 49.2892 100.116C48.6619 94.0743 48.0198 88.1499 46.5318 82.2467C46.1057 80.5048 45.6665 78.7662 45.2142 77.031C44.7326 75.1929 44.2151 72.8325 43.5417 71.0761C42.564 68.5246 41.3087 65.9838 40.2756 63.4482C39.7609 62.1855 39.0717 60.9612 38.6199 59.6718C38.448 59.1523 38.2221 56.7952 38.1425 56.0952C37.9631 54.5466 37.8035 52.9957 37.6639 51.443C37.5766 50.4916 37.442 49.4366 37.4735 48.4908C37.5505 46.1774 37.6975 43.8599 37.8485 41.5507C38.1324 37.1513 38.444 32.7536 38.7835 28.358C39.074 24.2273 39.3861 20.0981 39.7198 15.9707C39.8665 14.1988 39.9972 11.6732 40.2725 10Z" fill="#232C2B"/>
<path d="M49.6916 103.9C49.3252 103.443 56.611 47.697 40.2725 10C39.9972 11.6732 39.8665 14.1988 39.7198 15.9707C39.3861 20.0981 39.074 24.2273 38.7835 28.358C38.444 32.7535 38.1324 37.1513 37.8485 41.5507C37.6975 43.8599 37.5505 46.1774 37.4735 48.4908C37.442 49.4366 37.5766 50.4916 37.6639 51.443C37.8035 52.9957 37.9631 54.5466 38.1425 56.0952C38.2221 56.7952 38.448 59.1523 38.6199 59.6718C39.0717 60.9612 39.7609 62.1855 40.2756 63.4482C41.3087 65.9838 42.564 68.5246 43.5417 71.076C44.2151 72.8325 44.7326 75.1929 45.2142 77.031C45.6665 78.7662 46.1057 80.5048 46.5318 82.2467C48.0198 88.1498 48.6619 94.0743 49.2892 100.116C49.4047 100.523 49.4699 103.79 49.6916 103.9Z" fill="#32453E"/>
<path d="M50.7407 62.6525C50.7699 62.6412 50.8504 30.7365 40.2726 10C39.9973 11.6732 39.8665 14.1988 39.7198 15.9707C39.3861 20.0981 39.0741 24.2273 38.7835 28.358C38.444 32.7536 37.8486 41.5507 37.8486 41.5507L44.6508 50.894C44.6508 50.894 50.7791 62.6071 50.7407 62.6525Z" fill="#44514D"/>
<path d="M86.2288 34.2669L86.3168 34.2255C86.3786 34.4712 85.1733 42.2023 85.0235 43.2395C84.4538 47.2211 83.8545 51.1984 83.2256 55.1713C82.9112 57.1815 82.5994 59.2466 82.2346 61.2499C82.1385 61.7775 81.6998 63.0004 81.5123 63.5731L80.2277 67.4915C79.4625 69.8877 78.6589 72.2719 77.8158 74.6429C77.5094 75.5068 77.111 76.8791 76.7179 77.6588C75.2486 80.5766 73.7604 83.495 72.246 86.3902C71.2738 88.1042 70.215 89.8003 69.3328 91.5621C67.6653 94.8926 66.1038 98.2808 64.5861 101.681C64.3812 102.14 64.0553 102.954 63.7651 103.341C61.9443 103.554 60.1176 103.708 58.2867 103.805C57.1439 103.876 55.8123 103.974 54.6822 103.957C53.6368 103.978 52.1802 104.031 51.1569 103.946C51.6474 99.4772 52.2547 95.0213 52.9777 90.5833C53.1833 89.2979 53.3667 87.998 53.5978 86.7073C54.1454 83.6429 55.0746 80.5859 55.864 77.5706C56.2288 76.1764 56.5856 74.7311 56.986 73.3628C57.4959 71.6229 58.446 69.7304 59.1998 68.0615C61.8993 62.0455 65.0188 56.2227 68.536 50.6346C69.1628 49.626 70.299 47.7336 70.997 46.8345C71.4774 46.2154 73.319 44.5926 73.9996 43.9782C75.4595 42.6736 76.939 41.3893 78.4359 40.1256C79.0916 39.562 80.1384 38.5198 80.7975 38.0841C82.461 36.985 84.4954 35.1506 86.2288 34.2669Z" fill="#25332D"/>
<path d="M51.1569 103.946C51.6474 99.4772 52.2547 95.0212 52.9777 90.5832C53.1833 89.2979 53.3667 87.998 53.5978 86.7073C54.1454 83.6429 55.0746 80.5858 55.864 77.5705C56.2288 76.1764 56.5856 74.7311 56.986 73.3628C57.4959 71.6229 58.446 69.7304 59.1998 68.0615C61.8993 62.0455 65.0188 56.2226 68.536 50.6345C69.1628 49.626 70.299 47.7336 70.997 46.8344C71.4774 46.2154 73.319 44.5925 73.9996 43.9781C75.4595 42.6736 76.939 41.3893 78.4359 40.1256C79.0916 39.562 80.1384 38.5198 80.7975 38.0841C82.461 36.985 84.4954 35.1505 86.2288 34.2669C86.0232 34.7337 85.4004 35.69 85.1135 36.1526C84.4847 37.1567 83.8739 38.1721 83.2827 39.1983C81.1247 42.9463 79.0621 46.7476 77.0982 50.5986C73.9532 56.6725 70.999 62.8405 68.2404 69.0947C63.8901 78.7769 59.9435 88.6887 56.8678 98.8421C56.7421 99.2568 56.5869 99.7658 56.5083 100.192C56.2711 101.48 55.7599 102.652 55.4327 103.915C55.1901 103.914 54.9012 103.888 54.6822 103.957C53.6368 103.978 52.1802 104.031 51.1569 103.946Z" fill="#4A5E53"/>
<path d="M10 34.1932C10.6049 34.3966 11.7694 35.2228 12.3281 35.5768C17.9655 39.1483 22.9807 43.6008 28.0275 47.9255C28.7281 48.5258 29.3908 49.5039 29.9786 50.2347C30.6951 51.1253 31.3983 52.0524 32.1002 52.9585C33.1934 54.389 34.2618 55.8377 35.3048 57.3042C35.6813 57.8298 36.8443 59.4031 37.0814 59.8775C37.8534 61.4243 38.7978 63.3235 39.4708 64.924C40.3654 67.0521 41.6041 69.6149 42.3694 71.7522C42.9387 73.3428 43.5949 75.8392 44.0316 77.5114C44.7026 80.0808 45.5866 83.0596 46.1322 85.6409C46.6787 88.2268 47.1543 91.4087 47.5565 94.0199C47.9137 96.2853 48.2309 98.5574 48.5078 100.834C48.613 101.708 48.8128 103.111 48.8357 103.96C48.1226 103.996 46.5403 103.898 45.7665 103.846C44.6052 103.769 42.8685 103.725 41.753 103.538C41.1987 102.569 40.6743 101.325 40.1271 100.319C38.6573 97.6151 37.1028 94.6403 35.3999 92.0922L27.8281 80.9892C27.0675 79.897 26.2997 78.8094 25.5246 77.7264C25.1891 77.2553 24.3226 76.0914 24.1002 75.6295C23.1594 73.6773 22.2135 71.5923 21.3635 69.6036L19.6521 65.5896C19.3678 64.9333 18.8701 63.9048 18.6566 63.2757C18.2252 62.005 17.8475 60.638 17.4373 59.3507C16.05 54.9791 14.7348 50.5858 13.4922 46.1723L11.3008 38.6961C10.8859 37.2961 10.3296 35.5918 10 34.1932Z" fill="#36443F"/>
<path d="M10 34.1932C10.6049 34.3966 11.7694 35.2228 12.3281 35.5768C17.9655 39.1483 22.9807 43.6008 28.0275 47.9255C28.7281 48.5258 29.3908 49.5039 29.9786 50.2347C30.6951 51.1253 31.3983 52.0524 32.1002 52.9585C33.1934 54.389 34.2618 55.8377 35.3048 57.3042C35.6813 57.8298 36.8443 59.4031 37.0814 59.8775C37.8534 61.4243 38.7978 63.3235 39.4708 64.924C40.3654 67.0521 41.6041 69.6149 42.3694 71.7522C42.9387 73.3428 43.5949 75.8392 44.0316 77.5114C44.7026 80.0808 45.5866 83.0596 46.1322 85.6409C46.6787 88.2268 47.1543 91.4087 47.5565 94.0199C47.9137 96.2853 48.2309 98.5574 48.5078 100.834C48.613 101.708 48.8128 103.111 48.8357 103.96C48.1226 103.996 46.5402 103.898 45.7665 103.846C44.6051 103.769 41.1309 85.3981 35.7917 74.5338C30.4554 63.6755 18.6566 48.6723 18.6566 48.6723L11.3008 38.6961C10.8859 37.2961 10.3296 35.5918 10 34.1932Z" fill="#26302E"/>
<path d="M90 67.0229C89.9584 67.5306 86.548 74.4749 86.0837 75.4829C85.0061 77.8193 84.0211 80.2241 82.8743 82.5254C81.7442 84.7935 80.4892 87.0165 79.2986 89.2547C78.7047 90.3702 78.0254 91.9741 77.2824 92.9396C76.3874 94.1022 69.9355 101.695 69.0803 102.173C67.9737 102.792 66.1254 103.018 64.8482 103.201C64.8079 102.806 67.0264 98.5255 67.3388 97.8832C70.1411 92.1227 73.4574 86.6217 76.8987 81.2162C77.1695 80.7908 78.051 79.897 78.4259 79.4816L81.0636 76.5585C83.9015 73.4311 87.0076 70.0077 90 67.0229Z" fill="#2E3F38"/>
<path d="M16.1362 75.2433C16.5687 75.4743 18.2709 76.8067 18.7386 77.1651C21.3416 79.1598 23.8876 81.2261 26.3735 83.3615C27.2044 84.0729 28.6479 85.2381 29.3358 85.9747C30.0159 86.7026 31.0209 88.0716 31.6686 88.8898C34.5703 92.5541 37.0711 96.503 39.3508 100.569C39.686 101.167 40.6811 102.851 40.8715 103.443C40.0921 103.508 36.3432 102.797 35.8113 102.252C34.1008 100.501 32.5434 98.5242 30.8596 96.7346C29.1694 94.9376 27.7957 92.7053 26.3945 90.6708C24.1817 87.4797 22.009 84.2607 19.877 81.0158L17.3652 77.1876C17.0002 76.6282 16.4253 75.8061 16.1362 75.2433Z" fill="#2E3F38"/>
</g>
<mask id="mask0_1_45" style="mask-type:alpha" maskUnits="userSpaceOnUse" x="10" y="10" width="80" height="94">
<path d="M40.2725 10C40.6929 10.3373 41.7647 11.7008 42.1311 12.1579C44.5327 15.1766 46.8667 18.247 49.1313 21.3671C50.4817 23.2157 51.9551 24.9793 52.846 27.0751C53.1934 27.8929 53.6005 28.7256 53.9741 29.5352C55.3749 32.5563 56.7502 35.5889 58.0986 38.633C58.8538 40.3009 59.5909 41.9763 60.3104 43.6592C60.5913 44.3144 61.1536 45.5645 61.3034 46.1935C61.3941 46.5739 61.4559 48.0388 61.4815 48.4932C61.5762 50.2357 61.6602 51.9787 61.7334 53.7222C61.8147 55.4023 61.937 57.4343 61.8732 59.0912C61.8664 59.2604 60.3669 62.3155 60.1861 62.6964C59.2899 64.5936 58.4104 66.4987 57.547 68.4118C57.0599 69.4835 56.5581 70.5724 56.0931 71.6534C55.8822 72.1411 55.7142 72.9387 55.5738 73.4795L54.7763 76.5253C54.2798 78.4139 53.8014 80.3077 53.3412 82.2055C53.1961 82.7961 53.0523 83.388 52.9038 83.978C52.5061 85.5652 52.3354 87.2109 52.1164 88.832C51.7838 91.2879 51.4727 93.7465 51.1832 96.207C51.0495 98.2203 50.7512 100.309 50.5738 102.323C50.5281 102.839 50.7223 104.409 49.6916 103.9C49.4699 103.79 49.4047 100.523 49.2892 100.116C48.6619 94.0743 48.0198 88.1499 46.5318 82.2467C46.1057 80.5048 45.6665 78.7662 45.2142 77.031C44.7326 75.1929 44.2151 72.8325 43.5417 71.0761C42.564 68.5246 41.3087 65.9838 40.2756 63.4482C39.7609 62.1855 39.0717 60.9612 38.6199 59.6718C38.448 59.1523 38.2221 56.7952 38.1425 56.0952C37.9631 54.5466 37.8035 52.9957 37.6639 51.443C37.5766 50.4916 37.442 49.4366 37.4735 48.4908C37.5505 46.1774 37.6975 43.8599 37.8485 41.5507C38.1324 37.1513 38.444 32.7536 38.7835 28.358C39.074 24.2273 39.3861 20.0981 39.7198 15.9707C39.8665 14.1988 39.9972 11.6732 40.2725 10Z" fill="#232C2B"/>
<path d="M49.6916 103.9C49.3252 103.443 56.611 47.697 40.2725 10C39.9972 11.6732 39.8665 14.1988 39.7198 15.9707C39.3861 20.0981 39.074 24.2273 38.7835 28.358C38.444 32.7535 38.1324 37.1513 37.8485 41.5507C37.6975 43.8599 37.5505 46.1774 37.4735 48.4908C37.442 49.4366 37.5766 50.4916 37.6639 51.443C37.8035 52.9957 37.9631 54.5466 38.1425 56.0952C38.2221 56.7952 38.448 59.1523 38.6199 59.6718C39.0717 60.9612 39.7609 62.1855 40.2756 63.4482C41.3087 65.9838 42.564 68.5246 43.5417 71.076C44.2151 72.8325 44.7326 75.1929 45.2142 77.031C45.6665 78.7662 46.1057 80.5048 46.5318 82.2467C48.0198 88.1498 48.6619 94.0743 49.2892 100.116C49.4047 100.523 49.4699 103.79 49.6916 103.9Z" fill="#32453E"/>
<path d="M50.7407 62.6525C50.7699 62.6412 50.8504 30.7365 40.2726 10C39.9973 11.6732 39.8665 14.1988 39.7198 15.9707C39.3861 20.0981 39.0741 24.2273 38.7835 28.358C38.444 32.7536 37.8486 41.5507 37.8486 41.5507L44.6508 50.894C44.6508 50.894 50.7791 62.6071 50.7407 62.6525Z" fill="#44514D"/>
<path d="M86.2288 34.2669L86.3168 34.2255C86.3786 34.4712 85.1733 42.2023 85.0235 43.2395C84.4538 47.2211 83.8545 51.1984 83.2256 55.1713C82.9112 57.1815 82.5994 59.2466 82.2346 61.2499C82.1385 61.7775 81.6998 63.0004 81.5123 63.5731L80.2277 67.4915C79.4625 69.8877 78.6589 72.2719 77.8158 74.6429C77.5094 75.5068 77.111 76.8791 76.7179 77.6588C75.2486 80.5766 73.7604 83.495 72.246 86.3902C71.2738 88.1042 70.215 89.8003 69.3328 91.5621C67.6653 94.8926 66.1038 98.2808 64.5861 101.681C64.3812 102.14 64.0553 102.954 63.7651 103.341C61.9443 103.554 60.1176 103.708 58.2867 103.805C57.1439 103.876 55.8123 103.974 54.6822 103.957C53.6368 103.978 52.1802 104.031 51.1569 103.946C51.6474 99.4772 52.2547 95.0213 52.9777 90.5833C53.1833 89.2979 53.3667 87.998 53.5978 86.7073C54.1454 83.6429 55.0746 80.5859 55.864 77.5706C56.2288 76.1764 56.5856 74.7311 56.986 73.3628C57.4959 71.6229 58.446 69.7304 59.1998 68.0615C61.8993 62.0455 65.0188 56.2227 68.536 50.6346C69.1628 49.626 70.299 47.7336 70.997 46.8345C71.4774 46.2154 73.319 44.5926 73.9996 43.9782C75.4595 42.6736 76.939 41.3893 78.4359 40.1256C79.0916 39.562 80.1384 38.5198 80.7975 38.0841C82.461 36.985 84.4954 35.1506 86.2288 34.2669Z" fill="#25332D"/>
<path d="M51.1569 103.946C51.6474 99.4772 52.2547 95.0212 52.9777 90.5832C53.1833 89.2979 53.3667 87.998 53.5978 86.7073C54.1454 83.6429 55.0746 80.5858 55.864 77.5705C56.2288 76.1764 56.5856 74.7311 56.986 73.3628C57.4959 71.6229 58.446 69.7304 59.1998 68.0615C61.8993 62.0455 65.0188 56.2226 68.536 50.6345C69.1628 49.626 70.299 47.7336 70.997 46.8344C71.4774 46.2154 73.319 44.5925 73.9996 43.9781C75.4595 42.6736 76.939 41.3893 78.4359 40.1256C79.0916 39.562 80.1384 38.5198 80.7975 38.0841C82.461 36.985 84.4954 35.1505 86.2288 34.2669C86.0232 34.7337 85.4004 35.69 85.1135 36.1526C84.4847 37.1567 83.8739 38.1721 83.2827 39.1983C81.1247 42.9463 79.0621 46.7476 77.0982 50.5986C73.9532 56.6725 70.999 62.8405 68.2404 69.0947C63.8901 78.7769 59.9435 88.6887 56.8678 98.8421C56.7421 99.2568 56.5869 99.7658 56.5083 100.192C56.2711 101.48 55.7599 102.652 55.4327 103.915C55.1901 103.914 54.9012 103.888 54.6822 103.957C53.6368 103.978 52.1802 104.031 51.1569 103.946Z" fill="#4A5E53"/>
<path d="M10 34.1932C10.6049 34.3966 11.7694 35.2228 12.3281 35.5768C17.9655 39.1483 22.9807 43.6008 28.0275 47.9255C28.7281 48.5258 29.3908 49.5039 29.9786 50.2347C30.6951 51.1253 31.3983 52.0524 32.1002 52.9585C33.1934 54.389 34.2618 55.8377 35.3048 57.3042C35.6813 57.8298 36.8443 59.4031 37.0814 59.8775C37.8534 61.4243 38.7978 63.3235 39.4708 64.924C40.3654 67.0521 41.6041 69.6149 42.3694 71.7522C42.9387 73.3428 43.5949 75.8392 44.0316 77.5114C44.7026 80.0808 45.5866 83.0596 46.1322 85.6409C46.6787 88.2268 47.1543 91.4087 47.5565 94.0199C47.9137 96.2853 48.2309 98.5574 48.5078 100.834C48.613 101.708 48.8128 103.111 48.8357 103.96C48.1226 103.996 46.5403 103.898 45.7665 103.846C44.6052 103.769 42.8685 103.725 41.753 103.538C41.1987 102.569 40.6743 101.325 40.1271 100.319C38.6573 97.6151 37.1028 94.6403 35.3999 92.0922L27.8281 80.9892C27.0675 79.897 26.2997 78.8094 25.5246 77.7264C25.1891 77.2553 24.3226 76.0914 24.1002 75.6295C23.1594 73.6773 22.2135 71.5923 21.3635 69.6036L19.6521 65.5896C19.3678 64.9333 18.8701 63.9048 18.6566 63.2757C18.2252 62.005 17.8475 60.638 17.4373 59.3507C16.05 54.9791 14.7348 50.5858 13.4922 46.1723L11.3008 38.6961C10.8859 37.2961 10.3296 35.5918 10 34.1932Z" fill="#36443F"/>
<path d="M10 34.1932C10.6049 34.3966 11.7694 35.2228 12.3281 35.5768C17.9655 39.1483 22.9807 43.6008 28.0275 47.9255C28.7281 48.5258 29.3908 49.5039 29.9786 50.2347C30.6951 51.1253 31.3983 52.0524 32.1002 52.9585C33.1934 54.389 34.2618 55.8377 35.3048 57.3042C35.6813 57.8298 36.8443 59.4031 37.0814 59.8775C37.8534 61.4243 38.7978 63.3235 39.4708 64.924C40.3654 67.0521 41.6041 69.6149 42.3694 71.7522C42.9387 73.3428 43.5949 75.8392 44.0316 77.5114C44.7026 80.0808 45.5866 83.0596 46.1322 85.6409C46.6787 88.2268 47.1543 91.4087 47.5565 94.0199C47.9137 96.2853 48.2309 98.5574 48.5078 100.834C48.613 101.708 48.8128 103.111 48.8357 103.96C48.1226 103.996 46.5402 103.898 45.7665 103.846C44.6051 103.769 41.1309 85.3981 35.7917 74.5338C30.4554 63.6755 18.6566 48.6723 18.6566 48.6723L11.3008 38.6961C10.8859 37.2961 10.3296 35.5918 10 34.1932Z" fill="#26302E"/>
<path d="M90 67.0229C89.9584 67.5306 86.548 74.4749 86.0837 75.4829C85.0061 77.8193 84.0211 80.2241 82.8743 82.5254C81.7442 84.7935 80.4892 87.0165 79.2986 89.2547C78.7047 90.3702 78.0254 91.9741 77.2824 92.9396C76.3874 94.1022 69.9355 101.695 69.0803 102.173C67.9737 102.792 66.1254 103.018 64.8482 103.201C64.8079 102.806 67.0264 98.5255 67.3388 97.8832C70.1411 92.1227 73.4574 86.6217 76.8987 81.2162C77.1695 80.7908 78.051 79.897 78.4259 79.4816L81.0636 76.5585C83.9015 73.4311 87.0076 70.0077 90 67.0229Z" fill="#2E3F38"/>
<path d="M16.1362 75.2433C16.5687 75.4743 18.2709 76.8067 18.7386 77.1651C21.3416 79.1598 23.8876 81.2261 26.3735 83.3615C27.2044 84.0729 28.6479 85.2381 29.3358 85.9747C30.0159 86.7026 31.0209 88.0716 31.6686 88.8898C34.5703 92.5541 37.0711 96.503 39.3508 100.569C39.686 101.167 40.6811 102.851 40.8715 103.443C40.0921 103.508 36.3432 102.797 35.8113 102.252C34.1008 100.501 32.5434 98.5242 30.8596 96.7346C29.1694 94.9376 27.7957 92.7053 26.3945 90.6708C24.1817 87.4797 22.009 84.2607 19.877 81.0158L17.3652 77.1876C17.0002 76.6282 16.4253 75.8061 16.1362 75.2433Z" fill="#2E3F38"/>
</mask>
<g mask="url(#mask0_1_45)">
<rect x="5.75256" y="10.0372" width="87.6717" height="95.2603" fill="url(#paint0_radial_1_45)" fill-opacity="0.53"/>
</g>
</g>
<path d="M407.92 94.273C403.005 94.273 398.499 93.0784 394.403 90.6891C390.376 88.2998 387.167 85.0913 384.778 81.0636C382.457 77.0359 381.296 72.4963 381.296 67.4446C381.296 62.4612 382.457 57.9557 384.778 53.928C387.167 49.8321 390.376 46.5895 394.403 44.2002C398.499 41.8109 403.005 40.6162 407.92 40.6162C412.903 40.6162 417.409 41.8109 421.436 44.2002C425.464 46.5895 428.673 49.8321 431.062 53.928C433.451 57.9557 434.646 62.4612 434.646 67.4446C434.646 72.4963 433.451 77.0359 431.062 81.0636C428.673 85.0913 425.464 88.2998 421.436 90.6891C417.409 93.0784 412.903 94.273 407.92 94.273ZM407.92 86.4907C411.265 86.4907 414.303 85.6374 417.033 83.9308C419.764 82.2241 421.914 79.9372 423.484 77.0701C425.123 74.2029 425.942 70.9944 425.942 67.4446C425.942 63.8265 425.123 60.618 423.484 57.8192C421.914 54.952 419.764 52.6651 417.033 50.9585C414.303 49.2518 411.265 48.3985 407.92 48.3985C404.575 48.3985 401.537 49.2518 398.806 50.9585C396.144 52.6651 393.994 54.952 392.355 57.8192C390.785 60.618 390 63.8265 390 67.4446C390 70.9944 390.785 74.2029 392.355 77.0701C393.994 79.9372 396.144 82.2241 398.806 83.9308C401.537 85.6374 404.575 86.4907 407.92 86.4907Z" fill="#1A1814"/>
<path d="M326.652 93.2491V41.5378H335.459V47.2722C339.486 42.7666 344.811 40.5139 351.433 40.5139C355.392 40.5139 358.874 41.3672 361.877 43.0738C364.881 44.7805 367.202 47.1356 368.84 50.1393C370.547 53.143 371.4 56.6587 371.4 60.6864V93.2491H362.697V62.3247C362.697 57.9557 361.468 54.5083 359.01 51.9825C356.553 49.4567 353.208 48.1937 348.975 48.1937C346.04 48.1937 343.412 48.8423 341.09 50.1393C338.838 51.4364 336.96 53.2454 335.459 55.5664V93.2491H326.652Z" fill="#1A1814"/>
<path d="M289.437 94.1707C285.682 94.1707 282.371 93.5221 279.504 92.2251C276.637 90.8598 274.384 89.0166 272.746 86.6956C271.176 84.3745 270.391 81.6439 270.391 78.5037C270.391 73.6568 272.234 69.834 275.92 67.0351C279.675 64.1679 284.727 62.7343 291.075 62.7343C296.468 62.7343 301.383 63.8266 305.821 66.0111V59.7648C305.821 55.8736 304.694 52.9382 302.441 50.9585C300.189 48.9788 296.912 47.9889 292.611 47.9889C290.154 47.9889 287.628 48.3644 285.034 49.1153C282.44 49.798 279.572 50.9244 276.432 52.4945L273.156 45.7362C276.978 43.9613 280.528 42.6642 283.805 41.845C287.082 40.9576 290.358 40.5139 293.635 40.5139C300.257 40.5139 305.377 42.084 308.995 45.2242C312.613 48.3644 314.422 52.8699 314.422 58.7408V93.2491H305.821V88.4363C303.5 90.3478 300.974 91.7814 298.243 92.7371C295.513 93.6928 292.577 94.1707 289.437 94.1707ZM278.787 78.2989C278.787 81.0295 279.914 83.2482 282.167 84.9548C284.488 86.5932 287.491 87.4124 291.178 87.4124C294.113 87.4124 296.775 87.0028 299.165 86.1836C301.622 85.2961 303.841 83.8967 305.821 81.9852V72.667C303.773 71.3699 301.588 70.4483 299.267 69.9022C297.014 69.2878 294.454 68.9806 291.587 68.9806C287.696 68.9806 284.59 69.834 282.269 71.5406C279.948 73.2472 278.787 75.5 278.787 78.2989Z" fill="#1A1814"/>
<path d="M251.753 93.249V21.5701L260.56 19.7269V93.249H251.753Z" fill="#1A1814"/>
<path d="M218.027 94.1706C213.044 94.1706 208.504 93.0101 204.409 90.6891C200.381 88.2998 197.172 85.0913 194.783 81.0636C192.394 76.9677 191.199 72.3939 191.199 67.3422C191.199 62.4271 192.325 57.9557 194.578 53.928C196.899 49.9004 200.005 46.6919 203.897 44.3026C207.788 41.9133 212.123 40.7186 216.901 40.7186C221.611 40.7186 225.81 41.9133 229.496 44.3026C233.182 46.6919 236.118 49.9345 238.302 54.0304C240.487 58.0581 241.579 62.5636 241.579 67.547V70.2094H200.005C200.415 73.2813 201.473 76.0802 203.18 78.6061C204.886 81.0636 207.037 83.0092 209.631 84.4428C212.293 85.8764 215.229 86.5931 218.437 86.5931C221.031 86.5931 223.523 86.1836 225.912 85.3644C228.37 84.5452 230.452 83.3847 232.158 81.8828L237.688 87.6171C234.753 89.8016 231.681 91.44 228.472 92.5323C225.332 93.6245 221.85 94.1706 218.027 94.1706ZM200.108 63.3487H232.875C232.397 60.4815 231.373 57.9216 229.803 55.6688C228.301 53.3478 226.424 51.5387 224.171 50.2417C221.919 48.9446 219.427 48.2961 216.696 48.2961C213.897 48.2961 211.337 48.9446 209.016 50.2417C206.695 51.4705 204.75 53.2454 203.18 55.5664C201.61 57.8192 200.586 60.4133 200.108 63.3487Z" fill="#1A1814"/>
<path d="M156.112 94.0682C151.265 94.0682 146.862 92.8736 142.902 90.4843C138.943 88.095 135.803 84.9206 133.482 80.9612C131.161 76.9335 130 72.3939 130 67.3422C130 62.3588 131.161 57.8874 133.482 53.928C135.803 49.9004 138.943 46.6919 142.902 44.3026C146.862 41.9133 151.299 40.7186 156.214 40.7186C159.149 40.7186 161.982 41.1965 164.713 42.1522C167.444 43.1079 169.97 44.4732 172.291 46.2481V21.5701L181.097 19.7269V93.249H172.393V88.0267C167.887 92.0544 162.46 94.0682 156.112 94.0682ZM157.033 86.3883C160.173 86.3883 163.041 85.8081 165.635 84.6476C168.297 83.4188 170.516 81.7463 172.291 79.63V55.0544C170.516 53.0064 168.297 51.4022 165.635 50.2417C163.041 49.0129 160.173 48.3985 157.033 48.3985C153.62 48.3985 150.514 49.2177 147.715 50.8561C144.916 52.4944 142.697 54.7472 141.059 57.6144C139.489 60.4133 138.704 63.6217 138.704 67.2398C138.704 70.8579 139.489 74.1005 141.059 76.9677C142.697 79.8348 144.916 82.1217 147.715 83.8284C150.514 85.535 153.62 86.3883 157.033 86.3883Z" fill="#1A1814"/>
<defs>
<filter id="filter0_n_1_45" x="10" y="10" width="80.0001" height="94" filterUnits="userSpaceOnUse" color-interpolation-filters="sRGB">
<feFlood flood-opacity="0" result="BackgroundImageFix"/>
<feBlend mode="normal" in="SourceGraphic" in2="BackgroundImageFix" result="shape"/>
<feTurbulence type="fractalNoise" baseFrequency="1.953538179397583 1.953538179397583" stitchTiles="stitch" numOctaves="3" result="noise" seed="9169" />
<feColorMatrix in="noise" type="luminanceToAlpha" result="alphaNoise" />
<feComponentTransfer in="alphaNoise" result="coloredNoise1">
<feFuncA type="discrete" tableValues="0 0 0 0 0 0 0 0 0 0 0 0 0 0 0 0 1 1 1 1 1 1 1 1 1 1 1 1 1 1 1 1 1 1 0 0 0 0 0 0 0 0 0 0 0 0 0 0 0 0 0 0 0 0 0 0 0 0 0 0 0 0 0 0 0 0 0 0 0 0 0 0 0 0 0 0 0 0 0 0 0 0 0 0 0 0 0 0 0 0 0 0 0 0 0 0 0 0 0 0 "/>
</feComponentTransfer>
<feComposite operator="in" in2="shape" in="coloredNoise1" result="noise1Clipped" />
<feFlood flood-color="rgba(65, 105, 88, 0.44)" result="color1Flood" />
<feComposite operator="in" in2="noise1Clipped" in="color1Flood" result="color1" />
<feMerge result="effect1_noise_1_45">
<feMergeNode in="shape" />
<feMergeNode in="color1" />
</feMerge>
</filter>
<radialGradient id="paint0_radial_1_45" cx="0" cy="0" r="1" gradientTransform="matrix(0.219459 -38.6893 62.9308 0.348214 53.5934 97.8197)" gradientUnits="userSpaceOnUse">
<stop offset="0.000404775" stop-color="#00C26F" stop-opacity="0.5"/>
<stop offset="1" stop-color="#416958" stop-opacity="0"/>
</radialGradient>
<clipPath id="clip0_1_45">
<rect width="80" height="94" fill="white" transform="translate(10 10)"/>
</clipPath>
</defs>
</svg>
