<svg width="150" height="150" viewBox="0 0 150 150" fill="none" xmlns="http://www.w3.org/2000/svg">
<g clip-path="url(#clip0_3_330)">
<rect width="150" height="150" rx="75" fill="#F5EFEC"/>
<rect width="150" height="150" rx="75" fill="url(#paint0_radial_3_330)"/>
<g clip-path="url(#clip1_3_330)">
<g filter="url(#filter0_n_3_330)">
<path d="M60.9154 13.3334C61.5241 13.8238 63.0759 15.8062 63.6064 16.4707C67.0837 20.8596 70.4631 25.3237 73.7421 29.8599C75.6975 32.5477 77.8308 35.1118 79.1208 38.1588C79.6237 39.3479 80.2132 40.5585 80.7541 41.7356C82.7824 46.1279 84.7737 50.5372 86.7261 54.9629C87.8195 57.3878 88.8867 59.8238 89.9286 62.2705C90.3352 63.2232 91.1494 65.0406 91.3664 65.9551C91.4977 66.5082 91.5872 68.638 91.6242 69.2987C91.7613 71.8321 91.8829 74.3663 91.989 76.9011C92.1067 79.3437 92.2837 82.2981 92.1913 84.7071C92.1816 84.9531 90.0103 89.3949 89.7486 89.9487C88.4509 92.707 87.1775 95.4769 85.9274 98.2583C85.2222 99.8164 84.4955 101.4 83.8223 102.971C83.5168 103.68 83.2736 104.84 83.0703 105.626L81.9156 110.055C81.1967 112.8 80.5041 115.554 79.8377 118.313C79.6276 119.172 79.4194 120.032 79.2044 120.89C78.6285 123.198 78.3814 125.59 78.0643 127.947C77.5828 131.518 77.1324 135.092 76.7131 138.67C76.5195 141.597 76.0876 144.634 75.8308 147.561C75.7646 148.312 76.0457 150.594 74.5535 149.854C74.2324 149.694 74.1381 144.945 73.9708 144.353C73.0625 135.569 72.1327 126.955 69.9783 118.373C69.3613 115.84 68.7254 113.313 68.0705 110.79C67.3732 108.117 66.6239 104.686 65.6489 102.132C64.2332 98.4223 62.4157 94.7282 60.9198 91.0418C60.1746 89.2058 59.1767 87.4258 58.5225 85.5513C58.2736 84.7959 57.9465 81.369 57.8313 80.3511C57.5715 78.0998 57.3404 75.8449 57.1383 73.5873C57.0119 72.2041 56.8171 70.6702 56.8626 69.2952C56.9742 65.9317 57.187 62.5623 57.4056 59.205C57.8166 52.8086 58.2678 46.4148 58.7594 40.024C59.18 34.0184 59.6319 28.015 60.1151 22.0141C60.3274 19.438 60.5167 15.766 60.9154 13.3334Z" fill="#232C2B"/>
<path d="M74.5535 149.854C74.0229 149.19 84.5721 68.141 60.9154 13.3334C60.5167 15.766 60.3274 19.438 60.1151 22.0141C59.6319 28.015 59.18 34.0184 58.7594 40.024C58.2678 46.4148 57.8166 52.8086 57.4056 59.205C57.187 62.5623 56.9742 65.9317 56.8626 69.2952C56.8171 70.6702 57.0119 72.2041 57.1383 73.5873C57.3404 75.8449 57.5715 78.0998 57.8313 80.3512C57.9465 81.369 58.2736 84.7959 58.5225 85.5513C59.1767 87.4258 60.1746 89.2058 60.9198 91.0418C62.4157 94.7282 64.2332 98.4223 65.6489 102.132C66.6239 104.686 67.3732 108.117 68.0705 110.79C68.7254 113.313 69.3613 115.84 69.9783 118.373C72.1327 126.955 73.0625 135.569 73.9708 144.353C74.1381 144.945 74.2324 149.694 74.5535 149.854Z" fill="#32453E"/>
<path d="M76.0724 89.8849C76.1147 89.8685 76.2312 43.4822 60.9155 13.3334C60.5168 15.766 60.3275 19.438 60.1152 22.0141C59.632 28.015 59.1801 34.0184 58.7595 40.024C58.2679 46.4148 57.4057 59.205 57.4057 59.205L67.2548 72.7892C67.2548 72.7892 76.128 89.8189 76.0724 89.8849Z" fill="#44514D"/>
<path d="M127.456 48.615L127.584 48.5548C127.673 48.9121 125.928 60.1523 125.711 61.6603C124.886 67.449 124.018 73.2317 123.108 79.0079C122.653 81.9306 122.201 84.9329 121.673 87.8456C121.534 88.6126 120.899 90.3907 120.627 91.2233L118.767 96.9203C117.659 100.404 116.496 103.87 115.275 107.318C114.831 108.574 114.254 110.569 113.685 111.703C111.558 115.945 109.403 120.188 107.21 124.397C105.803 126.889 104.27 129.355 102.992 131.916C100.578 136.759 98.317 141.685 96.1195 146.628C95.8228 147.296 95.3509 148.479 94.9307 149.042C92.2944 149.351 89.6494 149.576 86.9985 149.716C85.3437 149.82 83.4156 149.963 81.7794 149.937C80.2657 149.968 78.1567 150.045 76.6751 149.922C77.3853 143.424 78.2647 136.946 79.3114 130.493C79.6091 128.625 79.8747 126.735 80.2093 124.858C81.0021 120.403 82.3475 115.958 83.4906 111.574C84.0188 109.547 84.5353 107.446 85.1151 105.457C85.8535 102.927 87.229 100.175 88.3205 97.749C92.2292 89.0024 96.7459 80.5365 101.839 72.4119C102.746 70.9456 104.391 68.1942 105.402 66.887C106.097 65.9869 108.764 63.6275 109.749 62.7342C111.863 60.8375 114.005 58.9702 116.173 57.133C117.122 56.3135 118.638 54.7982 119.592 54.1648C122.001 52.5668 124.946 49.8997 127.456 48.615Z" fill="#25332D"/>
<path d="M76.6751 149.922C77.3853 143.424 78.2647 136.946 79.3114 130.493C79.6091 128.625 79.8747 126.735 80.2093 124.858C81.0021 120.403 82.3475 115.958 83.4906 111.574C84.0188 109.547 84.5353 107.446 85.1151 105.457C85.8535 102.927 87.229 100.175 88.3205 97.7489C92.2292 89.0023 96.7459 80.5364 101.839 72.4119C102.746 70.9455 104.391 68.1942 105.402 66.8869C106.097 65.9869 108.764 63.6274 109.749 62.7342C111.863 60.8375 114.005 58.9702 116.173 57.133C117.122 56.3135 118.638 54.7982 119.592 54.1647C122.001 52.5668 124.946 49.8997 127.456 48.615C127.159 49.2936 126.257 50.684 125.841 51.3566C124.931 52.8165 124.047 54.2928 123.191 55.7847C120.066 61.234 117.079 66.7607 114.236 72.3596C109.682 81.1905 105.405 90.1581 101.411 99.2511C95.1116 113.328 89.3974 127.739 84.9439 142.501C84.762 143.104 84.5373 143.844 84.4235 144.463C84.0801 146.336 83.3398 148.041 82.866 149.877C82.5148 149.876 82.0965 149.837 81.7794 149.937C80.2657 149.968 78.1567 150.044 76.6751 149.922Z" fill="#4A5E53"/>
<path d="M17.0833 48.5079C17.9591 48.8036 19.6453 50.005 20.4542 50.5196C28.6166 55.7122 35.8783 62.1857 43.1857 68.4733C44.2 69.3461 45.1595 70.7682 46.0107 71.8307C47.0481 73.1256 48.0662 74.4735 49.0825 75.7909C50.6655 77.8706 52.2123 79.9769 53.7225 82.1091C54.2677 82.8732 55.9517 85.1606 56.2949 85.8505C57.4127 88.0993 58.7801 90.8605 59.7545 93.1875C61.0499 96.2816 62.8435 100.008 63.9515 103.115C64.7758 105.428 65.7259 109.057 66.3582 111.488C67.3297 115.224 68.6098 119.555 69.3997 123.308C70.191 127.068 70.8797 131.694 71.462 135.49C71.9791 138.784 72.4384 142.087 72.8394 145.397C72.9917 146.668 73.281 148.707 73.3141 149.941C72.2816 149.994 69.9905 149.852 68.8703 149.776C67.1887 149.664 64.6742 149.6 63.0589 149.329C62.2565 147.92 61.4971 146.111 60.7049 144.648C58.5767 140.717 56.3259 136.392 53.8602 132.687L42.8969 116.545C41.7956 114.957 40.6839 113.375 39.5616 111.801C39.0759 111.116 37.8212 109.424 37.4993 108.752C36.137 105.914 34.7675 102.883 33.5368 99.9911L31.0588 94.1552C30.6472 93.2011 29.9264 91.7057 29.6174 90.7911C28.9927 88.9435 28.4458 86.9561 27.8518 85.0844C25.8432 78.7286 23.9389 72.3412 22.1397 65.9244L18.9668 55.0547C18.366 53.0192 17.5606 50.5414 17.0833 48.5079Z" fill="#36443F"/>
<path d="M17.0833 48.5079C17.9591 48.8036 19.6453 50.005 20.4542 50.5196C28.6166 55.7122 35.8783 62.1857 43.1857 68.4733C44.2 69.3461 45.1595 70.7682 46.0107 71.8307C47.0481 73.1256 48.0662 74.4735 49.0825 75.7909C50.6655 77.8706 52.2123 79.9769 53.7225 82.1091C54.2677 82.8732 55.9517 85.1606 56.2949 85.8505C57.4127 88.0993 58.7801 90.8605 59.7545 93.1876C61.0499 96.2816 62.8435 100.008 63.9515 103.115C64.7758 105.428 65.7259 109.057 66.3582 111.488C67.3297 115.224 68.6097 119.555 69.3997 123.308C70.191 127.068 70.8797 131.694 71.462 135.49C71.9791 138.784 72.4384 142.087 72.8394 145.397C72.9917 146.668 73.281 148.707 73.3141 149.941C72.2816 149.994 69.9905 149.852 68.8703 149.776C67.1887 149.664 62.1582 122.955 54.4275 107.159C46.7011 91.3723 29.6174 69.5592 29.6174 69.5592L18.9668 55.0547C18.366 53.0192 17.5606 50.5414 17.0833 48.5079Z" fill="#26302E"/>
<path d="M132.917 96.2391C132.856 96.9772 127.918 107.074 127.246 108.539C125.686 111.936 124.26 115.432 122.599 118.778C120.963 122.076 119.146 125.308 117.422 128.562C116.562 130.184 115.578 132.516 114.503 133.919C113.207 135.61 103.865 146.649 102.627 147.344C101.024 148.243 98.3482 148.572 96.499 148.839C96.4406 148.265 99.6528 142.041 100.105 141.107C104.163 132.732 108.964 124.734 113.947 116.875C114.339 116.256 115.615 114.957 116.158 114.353L119.977 110.103C124.087 105.556 128.584 100.579 132.917 96.2391Z" fill="#2E3F38"/>
<path d="M25.9681 108.191C26.5943 108.527 29.059 110.464 29.736 110.985C33.5051 113.885 37.1914 116.889 40.7908 119.994C41.9938 121.028 44.084 122.722 45.08 123.793C46.0647 124.851 47.5198 126.842 48.4577 128.031C52.6591 133.359 56.2801 139.1 59.5808 145.012C60.0661 145.882 61.507 148.33 61.7827 149.19C60.6542 149.285 55.226 148.251 54.456 147.459C51.9793 144.913 49.7243 142.039 47.2863 139.437C44.839 136.824 42.8501 133.579 40.8212 130.621C37.6173 125.981 34.4714 121.301 31.3844 116.583L27.7475 111.018C27.2191 110.204 26.3867 109.009 25.9681 108.191Z" fill="#2E3F38"/>
</g>
</g>
</g>
<defs>
<filter id="filter0_n_3_330" x="17.0833" y="13.3334" width="115.833" height="136.667" filterUnits="userSpaceOnUse" color-interpolation-filters="sRGB">
<feFlood flood-opacity="0" result="BackgroundImageFix"/>
<feBlend mode="normal" in="SourceGraphic" in2="BackgroundImageFix" result="shape"/>
<feTurbulence type="fractalNoise" baseFrequency="1.8753966093063354 1.8753966093063354" stitchTiles="stitch" numOctaves="3" result="noise" seed="9169" />
<feColorMatrix in="noise" type="luminanceToAlpha" result="alphaNoise" />
<feComponentTransfer in="alphaNoise" result="coloredNoise1">
<feFuncA type="discrete" tableValues="0 0 0 0 0 0 0 0 0 0 0 0 0 0 0 0 1 1 1 1 1 1 1 1 1 1 1 1 1 1 1 1 1 1 0 0 0 0 0 0 0 0 0 0 0 0 0 0 0 0 0 0 0 0 0 0 0 0 0 0 0 0 0 0 0 0 0 0 0 0 0 0 0 0 0 0 0 0 0 0 0 0 0 0 0 0 0 0 0 0 0 0 0 0 0 0 0 0 0 0 "/>
</feComponentTransfer>
<feComposite operator="in" in2="shape" in="coloredNoise1" result="noise1Clipped" />
<feFlood flood-color="rgba(65, 105, 88, 0.44)" result="color1Flood" />
<feComposite operator="in" in2="noise1Clipped" in="color1Flood" result="color1" />
<feMerge result="effect1_noise_3_330">
<feMergeNode in="shape" />
<feMergeNode in="color1" />
</feMerge>
</filter>
<radialGradient id="paint0_radial_3_330" cx="0" cy="0" r="1" gradientTransform="matrix(0.375478 -60.9215 107.67 0.548309 81.8523 138.225)" gradientUnits="userSpaceOnUse">
<stop offset="0.000404775" stop-color="#7ED3AF"/>
<stop offset="1" stop-color="#F5EFEC" stop-opacity="0"/>
</radialGradient>
<clipPath id="clip0_3_330">
<rect width="150" height="150" rx="75" fill="white"/>
</clipPath>
<clipPath id="clip1_3_330">
<rect width="115.833" height="136.667" fill="white" transform="translate(17.0833 13.3334)"/>
</clipPath>
</defs>
</svg>
