<svg width="150" height="150" viewBox="0 0 150 150" fill="none" xmlns="http://www.w3.org/2000/svg">
<g filter="url(#filter0_n_1_104)">
<path d="M62.0196 11.5C62.5806 11.9557 64.0107 13.7979 64.4997 14.4154C67.7043 18.4939 70.8188 22.6422 73.8407 26.8576C75.6428 29.3553 77.6089 31.738 78.7977 34.5695C79.2612 35.6745 79.8045 36.7995 80.303 37.8933C82.1722 41.975 84.0074 46.0723 85.8068 50.185C86.8145 52.4384 87.798 54.7021 88.7582 56.9758C89.1329 57.861 89.8833 59.5499 90.0832 60.3997C90.2043 60.9137 90.2868 62.8929 90.3208 63.5068C90.4472 65.861 90.5593 68.216 90.657 70.5715C90.7655 72.8414 90.9287 75.5867 90.8435 77.8254C90.8345 78.054 88.8335 82.1816 88.5923 82.6962C87.3963 85.2594 86.2228 87.8334 85.0707 90.4181C84.4207 91.866 83.751 93.3372 83.1306 94.7976C82.8491 95.4566 82.625 96.5342 82.4376 97.2649L81.3734 101.38C80.7109 103.932 80.0726 106.49 79.4584 109.054C79.2648 109.852 79.0729 110.652 78.8748 111.449C78.344 113.593 78.1163 115.817 77.824 118.007C77.3803 121.325 76.9652 124.647 76.5788 127.971C76.4004 130.691 76.0023 133.514 75.7656 136.234C75.7046 136.931 75.9637 139.052 74.5885 138.365C74.2926 138.216 74.2056 133.802 74.0514 133.253C73.2144 125.09 72.3575 117.085 70.372 109.11C69.8034 106.756 69.2173 104.408 68.6138 102.063C67.9711 99.5798 67.2805 96.3908 66.382 94.0177C65.0773 90.5705 63.4023 87.1377 62.0237 83.712C61.3369 82.0059 60.4172 80.3518 59.8143 78.6098C59.585 77.9078 59.2835 74.7234 59.1773 73.7775C58.9379 71.6854 58.7249 69.59 58.5386 67.4921C58.4222 66.2067 58.2426 64.7813 58.2845 63.5036C58.3874 60.378 58.5835 57.2469 58.785 54.127C59.1638 48.1831 59.5796 42.2415 60.0326 36.3028C60.4203 30.7219 60.8367 25.1432 61.282 19.5667C61.4777 17.1728 61.6522 13.7606 62.0196 11.5Z" fill="#232C2B"/>
<path d="M74.5885 138.365C74.0995 137.747 83.8216 62.431 62.0196 11.5C61.6522 13.7606 61.4777 17.1728 61.282 19.5667C60.8367 25.1432 60.4203 30.7219 60.0326 36.3028C59.5796 42.2415 59.1638 48.1831 58.785 54.127C58.5835 57.2469 58.3874 60.378 58.2845 63.5036C58.2426 64.7813 58.4222 66.2067 58.5386 67.4921C58.7249 69.59 58.9379 71.6854 59.1773 73.7775C59.2835 74.7234 59.585 77.9078 59.8143 78.6098C60.4172 80.3518 61.3369 82.0059 62.0237 83.712C63.4023 87.1377 65.0773 90.5705 66.382 94.0177C67.2805 96.3908 67.9711 99.5798 68.6138 102.063C69.2173 104.408 69.8034 106.757 70.372 109.11C72.3575 117.085 73.2144 125.09 74.0514 133.253C74.2056 133.802 74.2926 138.216 74.5885 138.365Z" fill="#32453E"/>
<path d="M75.9883 82.6369C76.0273 82.6217 76.1347 39.5164 62.0197 11.5C61.6523 13.7606 61.4778 17.1728 61.2821 19.5667C60.8368 25.1432 60.4204 30.7219 60.0327 36.3028C59.5797 42.2415 58.7851 54.127 58.7851 54.127L67.862 66.7504C67.862 66.7504 76.0396 82.5756 75.9883 82.6369Z" fill="#44514D"/>
<path d="M123.344 44.2862L123.461 44.2302C123.544 44.5622 121.935 55.0074 121.735 56.4087C120.975 61.788 120.175 67.1617 119.336 72.5293C118.917 75.2453 118.501 78.0353 118.014 80.7419C117.886 81.4547 117.3 83.107 117.05 83.8807L115.336 89.1747C114.315 92.4121 113.243 95.6333 112.117 98.8366C111.709 100.004 111.177 101.858 110.652 102.911C108.692 106.853 106.706 110.796 104.685 114.708C103.388 117.024 101.975 119.315 100.798 121.696C98.5726 126.195 96.489 130.773 94.4637 135.367C94.1903 135.987 93.7555 137.086 93.3682 137.61C90.9386 137.897 88.5009 138.106 86.0578 138.237C84.5328 138.333 82.7559 138.465 81.2479 138.442C79.8529 138.471 77.9092 138.541 76.5438 138.428C77.1983 132.389 78.0088 126.369 78.9734 120.373C79.2478 118.637 79.4925 116.88 79.8009 115.137C80.5316 110.996 81.7715 106.866 82.8249 102.792C83.3118 100.909 83.7878 98.9559 84.3221 97.1072C85.0026 94.7565 86.2703 92.1996 87.2762 89.9448C90.8785 81.8169 95.0411 73.9498 99.7345 66.3999C100.571 65.0372 102.087 62.4805 103.018 61.2657C103.659 60.4293 106.117 58.2368 107.025 57.4067C108.973 55.6442 110.947 53.9089 112.945 52.2017C113.82 51.4401 115.217 50.0321 116.096 49.4434C118.316 47.9585 121.031 45.48 123.344 44.2862Z" fill="#25332D"/>
<path d="M76.5438 138.428C77.1983 132.389 78.0088 126.369 78.9734 120.373C79.2478 118.637 79.4925 116.88 79.8009 115.136C80.5316 110.996 81.7715 106.866 82.8249 102.792C83.3118 100.908 83.7878 98.9558 84.3222 97.1072C85.0026 94.7565 86.2703 92.1996 87.2762 89.9448C90.8785 81.8168 95.0411 73.9497 99.7345 66.3998C100.571 65.0372 102.087 62.4805 103.018 61.2657C103.659 60.4293 106.117 58.2367 107.025 57.4066C108.973 55.6441 110.947 53.9089 112.945 52.2016C113.82 51.4401 115.217 50.032 116.096 49.4434C118.316 47.9584 121.031 45.48 123.344 44.2861C123.069 44.9168 122.238 46.2088 121.856 46.8338C121.016 48.1904 120.201 49.5623 119.412 50.9487C116.533 56.0126 113.78 61.1484 111.16 66.3513C106.963 74.5576 103.021 82.8909 99.34 91.3407C93.5349 104.422 88.2687 117.814 84.1644 131.531C83.9967 132.092 83.7896 132.779 83.6847 133.355C83.3682 135.095 82.686 136.679 82.2494 138.385C81.9257 138.384 81.5402 138.349 81.2479 138.442C79.8529 138.471 77.9092 138.541 76.5438 138.428Z" fill="#4A5E53"/>
<path d="M21.624 44.1866C22.4311 44.4614 23.9851 45.5777 24.7305 46.0559C32.2531 50.8813 38.9454 56.8969 45.6799 62.7398C46.6147 63.5508 47.499 64.8723 48.2835 65.8597C49.2395 67.063 50.1778 68.3155 51.1144 69.5397C52.5733 71.4724 53.9989 73.4297 55.3906 75.4111C55.8932 76.1211 57.4451 78.2468 57.7613 78.8878C58.7916 80.9776 60.0517 83.5435 60.9498 85.7059C62.1436 88.5811 63.7965 92.0435 64.8177 94.9313C65.5774 97.0803 66.453 100.453 67.0357 102.712C67.9311 106.184 69.1107 110.208 69.8387 113.696C70.5681 117.19 71.2027 121.488 71.7394 125.016C72.216 128.077 72.6392 131.147 73.0088 134.223C73.1492 135.403 73.4158 137.299 73.4463 138.445C72.4947 138.495 70.3833 138.362 69.3508 138.292C67.8011 138.188 65.4837 138.128 63.9951 137.876C63.2556 136.567 62.5557 134.886 61.8256 133.526C59.8643 129.874 57.79 125.855 55.5176 122.412L45.4137 107.411C44.3988 105.935 43.3742 104.466 42.34 103.003C41.8923 102.366 40.736 100.794 40.4393 100.17C39.1838 97.5321 37.9217 94.7152 36.7875 92.0283L34.5037 86.6052C34.1244 85.7185 33.4602 84.3289 33.1753 83.479C32.5997 81.7621 32.0957 79.9152 31.5482 78.176C29.6971 72.2697 27.9421 66.3341 26.284 60.3712L23.3597 50.2703C22.8061 48.3788 22.0638 46.0762 21.624 44.1866Z" fill="#36443F"/>
<path d="M21.624 44.1866C22.4311 44.4614 23.9851 45.5777 24.7305 46.0559C32.2531 50.8813 38.9454 56.8969 45.6799 62.7398C46.6147 63.5508 47.499 64.8723 48.2835 65.8597C49.2395 67.063 50.1778 68.3155 51.1144 69.5397C52.5733 71.4724 53.9989 73.4297 55.3906 75.4111C55.8932 76.1211 57.4451 78.2468 57.7613 78.8878C58.7916 80.9776 60.0517 83.5435 60.9498 85.7059C62.1436 88.5811 63.7965 92.0435 64.8177 94.9313C65.5774 97.0803 66.453 100.453 67.0357 102.712C67.9311 106.184 69.1107 110.208 69.8387 113.696C70.5681 117.19 71.2027 121.488 71.7394 125.016C72.216 128.077 72.6392 131.147 73.0088 134.223C73.1492 135.403 73.4158 137.299 73.4463 138.445C72.4947 138.495 70.3833 138.362 69.3508 138.292C67.8011 138.188 63.165 113.368 56.0404 98.6894C48.9197 84.0191 33.1753 63.7489 33.1753 63.7489L23.3597 50.2703C22.8061 48.3788 22.0638 46.0762 21.624 44.1866Z" fill="#26302E"/>
<path d="M128.376 88.5417C128.32 89.2275 123.77 98.6098 123.15 99.9716C121.712 103.128 120.398 106.377 118.867 109.487C117.359 112.551 115.685 115.554 114.096 118.578C113.304 120.085 112.397 122.252 111.406 123.557C110.211 125.127 101.602 135.386 100.461 136.032C98.9841 136.868 96.5177 137.173 94.8134 137.421C94.7596 136.887 97.72 131.104 98.1369 130.236C101.876 122.453 106.302 115.021 110.894 107.718C111.255 107.143 112.431 105.935 112.931 105.374L116.451 101.425C120.238 97.1995 124.383 92.5743 128.376 88.5417Z" fill="#2E3F38"/>
<path d="M29.8121 99.6479C30.3892 99.9599 32.6607 101.76 33.2847 102.244C36.7582 104.939 40.1555 107.731 43.4728 110.616C44.5814 111.577 46.5077 113.152 47.4257 114.147C48.3332 115.13 49.6742 116.98 50.5386 118.085C54.4106 123.036 57.7477 128.371 60.7896 133.865C61.2369 134.673 62.5648 136.948 62.8189 137.747C61.7788 137.836 56.7763 136.875 56.0666 136.139C53.7841 133.773 51.7058 131.102 49.459 128.684C47.2035 126.256 45.3706 123.24 43.5008 120.491C40.548 116.18 37.6488 111.831 34.8039 107.447L31.4521 102.275C30.9651 101.519 30.1979 100.408 29.8121 99.6479Z" fill="#2E3F38"/>
</g>
<mask id="mask0_1_104" style="mask-type:alpha" maskUnits="userSpaceOnUse" x="21" y="11" width="108" height="128">
<path d="M62.0196 11.5C62.5806 11.9557 64.0107 13.7979 64.4997 14.4154C67.7043 18.4939 70.8188 22.6422 73.8407 26.8576C75.6428 29.3553 77.6089 31.738 78.7977 34.5695C79.2612 35.6745 79.8045 36.7995 80.303 37.8933C82.1722 41.975 84.0074 46.0723 85.8068 50.185C86.8145 52.4384 87.798 54.7021 88.7582 56.9758C89.1329 57.861 89.8833 59.5499 90.0832 60.3997C90.2043 60.9137 90.2868 62.8929 90.3208 63.5068C90.4472 65.861 90.5593 68.216 90.657 70.5715C90.7655 72.8414 90.9287 75.5867 90.8435 77.8254C90.8345 78.054 88.8335 82.1816 88.5923 82.6962C87.3963 85.2594 86.2228 87.8334 85.0707 90.4181C84.4207 91.866 83.751 93.3372 83.1306 94.7976C82.8491 95.4566 82.625 96.5342 82.4376 97.2649L81.3734 101.38C80.7109 103.932 80.0726 106.49 79.4584 109.054C79.2648 109.852 79.0729 110.652 78.8748 111.449C78.344 113.593 78.1163 115.817 77.824 118.007C77.3803 121.325 76.9652 124.647 76.5788 127.971C76.4004 130.691 76.0023 133.514 75.7656 136.234C75.7046 136.931 75.9637 139.052 74.5885 138.365C74.2926 138.216 74.2056 133.802 74.0514 133.253C73.2144 125.09 72.3575 117.085 70.372 109.11C69.8034 106.756 69.2173 104.408 68.6138 102.063C67.9711 99.5798 67.2805 96.3908 66.382 94.0177C65.0773 90.5705 63.4023 87.1377 62.0237 83.712C61.3369 82.0059 60.4172 80.3518 59.8143 78.6098C59.585 77.9078 59.2835 74.7234 59.1773 73.7775C58.9379 71.6854 58.7249 69.59 58.5386 67.4921C58.4222 66.2067 58.2426 64.7813 58.2845 63.5036C58.3874 60.378 58.5835 57.2469 58.785 54.127C59.1638 48.1831 59.5796 42.2415 60.0326 36.3028C60.4203 30.7219 60.8367 25.1432 61.282 19.5667C61.4777 17.1728 61.6522 13.7606 62.0196 11.5Z" fill="#232C2B"/>
<path d="M74.5885 138.365C74.0995 137.747 83.8216 62.431 62.0196 11.5C61.6522 13.7606 61.4777 17.1728 61.282 19.5667C60.8367 25.1432 60.4203 30.7219 60.0326 36.3028C59.5796 42.2415 59.1638 48.1831 58.785 54.127C58.5835 57.2469 58.3874 60.378 58.2845 63.5036C58.2426 64.7813 58.4222 66.2067 58.5386 67.4921C58.7249 69.59 58.9379 71.6854 59.1773 73.7775C59.2835 74.7234 59.585 77.9078 59.8143 78.6098C60.4172 80.3518 61.3369 82.0059 62.0237 83.712C63.4023 87.1377 65.0773 90.5705 66.382 94.0177C67.2805 96.3908 67.9711 99.5798 68.6138 102.063C69.2173 104.408 69.8034 106.757 70.372 109.11C72.3575 117.085 73.2144 125.09 74.0514 133.253C74.2056 133.802 74.2926 138.216 74.5885 138.365Z" fill="#32453E"/>
<path d="M75.9883 82.6369C76.0273 82.6217 76.1347 39.5164 62.0197 11.5C61.6523 13.7606 61.4778 17.1728 61.2821 19.5667C60.8368 25.1432 60.4204 30.7219 60.0327 36.3028C59.5797 42.2415 58.7851 54.127 58.7851 54.127L67.862 66.7504C67.862 66.7504 76.0396 82.5756 75.9883 82.6369Z" fill="#44514D"/>
<path d="M123.344 44.2862L123.461 44.2302C123.544 44.5622 121.935 55.0074 121.735 56.4087C120.975 61.788 120.175 67.1617 119.336 72.5293C118.917 75.2453 118.501 78.0353 118.014 80.7419C117.886 81.4547 117.3 83.107 117.05 83.8807L115.336 89.1747C114.315 92.4121 113.243 95.6333 112.117 98.8366C111.709 100.004 111.177 101.858 110.652 102.911C108.692 106.853 106.706 110.796 104.685 114.708C103.388 117.024 101.975 119.315 100.798 121.696C98.5726 126.195 96.489 130.773 94.4637 135.367C94.1903 135.987 93.7555 137.086 93.3682 137.61C90.9386 137.897 88.5009 138.106 86.0578 138.237C84.5328 138.333 82.7559 138.465 81.2479 138.442C79.8529 138.471 77.9092 138.541 76.5438 138.428C77.1983 132.389 78.0088 126.369 78.9734 120.373C79.2478 118.637 79.4925 116.88 79.8009 115.137C80.5316 110.996 81.7715 106.866 82.8249 102.792C83.3118 100.909 83.7878 98.9559 84.3221 97.1072C85.0026 94.7565 86.2703 92.1996 87.2762 89.9448C90.8785 81.8169 95.0411 73.9498 99.7345 66.3999C100.571 65.0372 102.087 62.4805 103.018 61.2657C103.659 60.4293 106.117 58.2368 107.025 57.4067C108.973 55.6442 110.947 53.9089 112.945 52.2017C113.82 51.4401 115.217 50.0321 116.096 49.4434C118.316 47.9585 121.031 45.48 123.344 44.2862Z" fill="#25332D"/>
<path d="M76.5438 138.428C77.1983 132.389 78.0088 126.369 78.9734 120.373C79.2478 118.637 79.4925 116.88 79.8009 115.136C80.5316 110.996 81.7715 106.866 82.8249 102.792C83.3118 100.908 83.7878 98.9558 84.3222 97.1072C85.0026 94.7565 86.2703 92.1996 87.2762 89.9448C90.8785 81.8168 95.0411 73.9497 99.7345 66.3998C100.571 65.0372 102.087 62.4805 103.018 61.2657C103.659 60.4293 106.117 58.2367 107.025 57.4066C108.973 55.6441 110.947 53.9089 112.945 52.2016C113.82 51.4401 115.217 50.032 116.096 49.4434C118.316 47.9584 121.031 45.48 123.344 44.2861C123.069 44.9168 122.238 46.2088 121.856 46.8338C121.016 48.1904 120.201 49.5623 119.412 50.9487C116.533 56.0126 113.78 61.1484 111.16 66.3513C106.963 74.5576 103.021 82.8909 99.34 91.3407C93.5349 104.422 88.2687 117.814 84.1644 131.531C83.9967 132.092 83.7896 132.779 83.6847 133.355C83.3682 135.095 82.686 136.679 82.2494 138.385C81.9257 138.384 81.5402 138.349 81.2479 138.442C79.8529 138.471 77.9092 138.541 76.5438 138.428Z" fill="#4A5E53"/>
<path d="M21.624 44.1866C22.4311 44.4614 23.9851 45.5777 24.7305 46.0559C32.2531 50.8813 38.9454 56.8969 45.6799 62.7398C46.6147 63.5508 47.499 64.8723 48.2835 65.8597C49.2395 67.063 50.1778 68.3155 51.1144 69.5397C52.5733 71.4724 53.9989 73.4297 55.3906 75.4111C55.8932 76.1211 57.4451 78.2468 57.7613 78.8878C58.7916 80.9776 60.0517 83.5435 60.9498 85.7059C62.1436 88.5811 63.7965 92.0435 64.8177 94.9313C65.5774 97.0803 66.453 100.453 67.0357 102.712C67.9311 106.184 69.1107 110.208 69.8387 113.696C70.5681 117.19 71.2027 121.488 71.7394 125.016C72.216 128.077 72.6392 131.147 73.0088 134.223C73.1492 135.403 73.4158 137.299 73.4463 138.445C72.4947 138.495 70.3833 138.362 69.3508 138.292C67.8011 138.188 65.4837 138.128 63.9951 137.876C63.2556 136.567 62.5557 134.886 61.8256 133.526C59.8643 129.874 57.79 125.855 55.5176 122.412L45.4137 107.411C44.3988 105.935 43.3742 104.466 42.34 103.003C41.8923 102.366 40.736 100.794 40.4393 100.17C39.1838 97.5321 37.9217 94.7152 36.7875 92.0283L34.5037 86.6052C34.1244 85.7185 33.4602 84.3289 33.1753 83.479C32.5997 81.7621 32.0957 79.9152 31.5482 78.176C29.6971 72.2697 27.9421 66.3341 26.284 60.3712L23.3597 50.2703C22.8061 48.3788 22.0638 46.0762 21.624 44.1866Z" fill="#36443F"/>
<path d="M21.624 44.1866C22.4311 44.4614 23.9851 45.5777 24.7305 46.0559C32.2531 50.8813 38.9454 56.8969 45.6799 62.7398C46.6147 63.5508 47.499 64.8723 48.2835 65.8597C49.2395 67.063 50.1778 68.3155 51.1144 69.5397C52.5733 71.4724 53.9989 73.4297 55.3906 75.4111C55.8932 76.1211 57.4451 78.2468 57.7613 78.8878C58.7916 80.9776 60.0517 83.5435 60.9498 85.7059C62.1436 88.5811 63.7965 92.0435 64.8177 94.9313C65.5774 97.0803 66.453 100.453 67.0357 102.712C67.9311 106.184 69.1107 110.208 69.8387 113.696C70.5681 117.19 71.2027 121.488 71.7394 125.016C72.216 128.077 72.6392 131.147 73.0088 134.223C73.1492 135.403 73.4158 137.299 73.4463 138.445C72.4947 138.495 70.3833 138.362 69.3508 138.292C67.8011 138.188 63.165 113.368 56.0404 98.6894C48.9197 84.0191 33.1753 63.7489 33.1753 63.7489L23.3597 50.2703C22.8061 48.3788 22.0638 46.0762 21.624 44.1866Z" fill="#26302E"/>
<path d="M128.376 88.5417C128.32 89.2275 123.77 98.6098 123.15 99.9716C121.712 103.128 120.398 106.377 118.867 109.487C117.359 112.551 115.685 115.554 114.096 118.578C113.304 120.085 112.397 122.252 111.406 123.557C110.211 125.127 101.602 135.386 100.461 136.032C98.9841 136.868 96.5177 137.173 94.8134 137.421C94.7596 136.887 97.72 131.104 98.1369 130.236C101.876 122.453 106.302 115.021 110.894 107.718C111.255 107.143 112.431 105.935 112.931 105.374L116.451 101.425C120.238 97.1995 124.383 92.5743 128.376 88.5417Z" fill="#2E3F38"/>
<path d="M29.8121 99.6479C30.3892 99.9599 32.6607 101.76 33.2847 102.244C36.7582 104.939 40.1555 107.731 43.4728 110.616C44.5814 111.577 46.5077 113.152 47.4257 114.147C48.3332 115.13 49.6742 116.98 50.5386 118.085C54.4106 123.036 57.7477 128.371 60.7896 133.865C61.2369 134.673 62.5648 136.948 62.8189 137.747C61.7788 137.836 56.7763 136.875 56.0666 136.139C53.7841 133.773 51.7058 131.102 49.459 128.684C47.2035 126.256 45.3706 123.24 43.5008 120.491C40.548 116.18 37.6488 111.831 34.8039 107.447L31.4521 102.275C30.9651 101.519 30.1979 100.408 29.8121 99.6479Z" fill="#2E3F38"/>
</mask>
<g mask="url(#mask0_1_104)">
<rect x="15.9562" y="11.5503" width="116.989" height="128.703" fill="url(#paint0_radial_1_104)" fill-opacity="0.53"/>
</g>
<defs>
<filter id="filter0_n_1_104" x="21.624" y="11.5" width="106.752" height="127" filterUnits="userSpaceOnUse" color-interpolation-filters="sRGB">
<feFlood flood-opacity="0" result="BackgroundImageFix"/>
<feBlend mode="normal" in="SourceGraphic" in2="BackgroundImageFix" result="shape"/>
<feTurbulence type="fractalNoise" baseFrequency="1.5628305673599243 1.5628305673599243" stitchTiles="stitch" numOctaves="3" result="noise" seed="9169" />
<feColorMatrix in="noise" type="luminanceToAlpha" result="alphaNoise" />
<feComponentTransfer in="alphaNoise" result="coloredNoise1">
<feFuncA type="discrete" tableValues="0 0 0 0 0 0 0 0 0 0 0 0 0 0 0 0 1 1 1 1 1 1 1 1 1 1 1 1 1 1 1 1 1 1 0 0 0 0 0 0 0 0 0 0 0 0 0 0 0 0 0 0 0 0 0 0 0 0 0 0 0 0 0 0 0 0 0 0 0 0 0 0 0 0 0 0 0 0 0 0 0 0 0 0 0 0 0 0 0 0 0 0 0 0 0 0 0 0 0 0 "/>
</feComponentTransfer>
<feComposite operator="in" in2="shape" in="coloredNoise1" result="noise1Clipped" />
<feFlood flood-color="rgba(65, 105, 88, 0.44)" result="color1Flood" />
<feComposite operator="in" in2="noise1Clipped" in="color1Flood" result="color1" />
<feMerge result="effect1_noise_1_104">
<feMergeNode in="shape" />
<feMergeNode in="color1" />
</feMerge>
</filter>
<radialGradient id="paint0_radial_1_104" cx="0" cy="0" r="1" gradientUnits="userSpaceOnUse" gradientTransform="translate(79.7951 130.15) rotate(-89.679) scale(52.2726 83.9762)">
<stop offset="0.000404775" stop-color="#00C26F" stop-opacity="0.5"/>
<stop offset="1" stop-color="#416958" stop-opacity="0"/>
</radialGradient>
</defs>
</svg>
