<svg width="548" height="167" viewBox="0 0 548 167" fill="none" xmlns="http://www.w3.org/2000/svg">
<g filter="url(#filter0_n_1_45)">
<path d="M60.3956 20C60.9566 20.4557 62.3867 22.2979 62.8757 22.9154C66.0804 26.9939 69.1948 31.1422 72.2168 35.3576C74.0188 37.8553 75.9849 40.238 77.1737 43.0695C77.6372 44.1745 78.1805 45.2995 78.679 46.3933C80.5483 50.475 82.3835 54.5723 84.1828 58.685C85.1905 60.9384 86.174 63.2021 87.1342 65.4758C87.509 66.361 88.2594 68.0499 88.4593 68.8997C88.5803 69.4137 88.6628 71.3929 88.6969 72.0068C88.8233 74.361 88.9353 76.716 89.0331 79.0715C89.1415 81.3414 89.3047 84.0867 89.2195 86.3254C89.2106 86.554 87.2095 90.6816 86.9683 91.1962C85.7724 93.7594 84.5988 96.3334 83.4468 98.9181C82.7968 100.366 82.1271 101.837 81.5067 103.298C81.2251 103.957 81.001 105.034 80.8136 105.765L79.7495 109.88C79.0869 112.432 78.4486 114.99 77.8345 117.554C77.6408 118.352 77.449 119.152 77.2508 119.949C76.7201 122.093 76.4924 124.317 76.2001 126.507C75.7563 129.825 75.3412 133.147 74.9548 136.471C74.7764 139.191 74.3783 142.014 74.1416 144.734C74.0807 145.431 74.3398 147.552 72.9645 146.865C72.6686 146.716 72.5817 142.302 72.4275 141.753C71.5905 133.59 70.7336 125.585 68.748 117.61C68.1794 115.256 67.5934 112.908 66.9898 110.563C66.3472 108.08 65.6566 104.891 64.7581 102.518C63.4534 99.0705 61.7784 95.6377 60.3998 92.212C59.7129 90.5059 58.7933 88.8518 58.1903 87.1098C57.961 86.4078 57.6595 83.2234 57.5534 82.2775C57.3139 80.1854 57.101 78.09 56.9147 75.9921C56.7982 74.7067 56.6186 73.2813 56.6606 72.0036C56.7634 68.878 56.9596 65.7469 57.161 62.627C57.5398 56.6831 57.9556 50.7415 58.4086 44.8028C58.7963 39.2219 59.2127 33.6432 59.6581 28.0667C59.8538 25.6728 60.0282 22.2606 60.3956 20Z" fill="#232C2B"/>
<path d="M72.9645 146.865C72.4755 146.247 82.1977 70.931 60.3956 20C60.0282 22.2606 59.8538 25.6728 59.6581 28.0667C59.2127 33.6432 58.7963 39.2219 58.4086 44.8028C57.9556 50.7415 57.5398 56.6831 57.161 62.627C56.9596 65.7469 56.7634 68.878 56.6606 72.0036C56.6186 73.2813 56.7982 74.7067 56.9147 75.9921C57.101 78.09 57.3139 80.1854 57.5534 82.2775C57.6595 83.2234 57.961 86.4078 58.1903 87.1098C58.7933 88.8518 59.7129 90.5059 60.3998 92.212C61.7784 95.6377 63.4534 99.0705 64.7581 102.518C65.6566 104.891 66.3472 108.08 66.9898 110.563C67.5934 112.908 68.1794 115.257 68.748 117.61C70.7336 125.585 71.5905 133.59 72.4275 141.753C72.5817 142.302 72.6686 146.716 72.9645 146.865Z" fill="#32453E"/>
<path d="M74.3643 91.1369C74.4034 91.1217 74.5108 48.0164 60.3957 20C60.0283 22.2606 59.8539 25.6728 59.6582 28.0667C59.2129 33.6432 58.7964 39.2219 58.4088 44.8028C57.9557 50.7415 57.1611 62.627 57.1611 62.627L66.238 75.2504C66.238 75.2504 74.4156 91.0756 74.3643 91.1369Z" fill="#44514D"/>
<path d="M121.72 52.7862L121.837 52.7302C121.92 53.0622 120.311 63.5074 120.111 64.9087C119.351 70.288 118.551 75.6617 117.712 81.0293C117.293 83.7453 116.877 86.5353 116.39 89.2419C116.262 89.9547 115.676 91.607 115.426 92.3807L113.712 97.6747C112.691 100.912 111.619 104.133 110.493 107.337C110.085 108.504 109.553 110.358 109.028 111.411C107.068 115.353 105.082 119.296 103.061 123.208C101.764 125.524 100.351 127.815 99.1738 130.196C96.9486 134.695 94.865 139.273 92.8398 143.867C92.5663 144.487 92.1315 145.586 91.7442 146.11C89.3146 146.397 86.8769 146.606 84.4339 146.737C82.9089 146.833 81.1319 146.965 79.624 146.942C78.229 146.971 76.2853 147.041 74.9199 146.928C75.5743 140.889 76.3848 134.869 77.3495 128.873C77.6238 127.137 77.8686 125.38 78.177 123.637C78.9076 119.496 80.1476 115.366 81.201 111.292C81.6878 109.409 82.1639 107.456 82.6982 105.607C83.3787 103.257 84.6464 100.7 85.6523 98.4448C89.2545 90.3169 93.4171 82.4498 98.1105 74.8999C98.947 73.5372 100.463 70.9805 101.395 69.7657C102.036 68.9293 104.493 66.7368 105.401 65.9067C107.349 64.1442 109.323 62.4089 111.321 60.7017C112.196 59.9401 113.593 58.5321 114.472 57.9434C116.692 56.4585 119.407 53.98 121.72 52.7862Z" fill="#25332D"/>
<path d="M74.9199 146.928C75.5743 140.889 76.3848 134.869 77.3495 128.873C77.6238 127.137 77.8686 125.38 78.177 123.636C78.9076 119.496 80.1476 115.366 81.201 111.292C81.6878 109.408 82.1639 107.456 82.6982 105.607C83.3787 103.256 84.6464 100.7 85.6523 98.4448C89.2545 90.3168 93.4171 82.4497 98.1105 74.8998C98.947 73.5372 100.463 70.9805 101.395 69.7657C102.036 68.9293 104.493 66.7367 105.401 65.9066C107.349 64.1441 109.323 62.4089 111.321 60.7016C112.196 59.9401 113.593 58.532 114.472 57.9434C116.692 56.4584 119.407 53.98 121.72 52.7861C121.445 53.4168 120.614 54.7088 120.232 55.3338C119.392 56.6904 118.577 58.0623 117.789 59.4487C114.909 64.5126 112.156 69.6484 109.536 74.8513C105.339 83.0576 101.397 91.3909 97.716 99.8407C91.911 112.922 86.6447 126.314 82.5404 140.031C82.3727 140.592 82.1656 141.279 82.0608 141.855C81.7443 143.595 81.062 145.179 80.6254 146.885C80.3018 146.884 79.9162 146.849 79.624 146.942C78.229 146.971 76.2853 147.041 74.9199 146.928Z" fill="#4A5E53"/>
<path d="M20 52.6866C20.8071 52.9614 22.3611 54.0777 23.1066 54.5559C30.6291 59.3813 37.3215 65.3969 44.056 71.2398C44.9908 72.0508 45.875 73.3723 46.6595 74.3597C47.6156 75.563 48.5539 76.8155 49.4905 78.0397C50.9493 79.9724 52.3749 81.9297 53.7667 83.9111C54.2692 84.6211 55.8211 86.7468 56.1374 87.3878C57.1676 89.4776 58.4278 92.0435 59.3258 94.2059C60.5196 97.0811 62.1726 100.544 63.1937 103.431C63.9535 105.58 64.829 108.953 65.4118 111.212C66.3071 114.684 67.4868 118.708 68.2148 122.196C68.9441 125.69 69.5788 129.988 70.1154 133.516C70.592 136.577 71.0153 139.647 71.3848 142.723C71.5252 143.903 71.7919 145.799 71.8223 146.945C70.8708 146.995 68.7593 146.862 67.7269 146.792C66.1771 146.688 63.8598 146.628 62.3712 146.376C61.6316 145.067 60.9318 143.386 60.2016 142.026C58.2403 138.374 56.166 134.355 53.8936 130.912L43.7898 115.911C42.7748 114.435 41.7503 112.966 40.716 111.503C40.2684 110.866 39.112 109.294 38.8154 108.67C37.5599 106.032 36.2977 103.215 35.1635 100.528L32.8798 95.1052C32.5005 94.2185 31.8362 92.8289 31.5514 91.979C30.9757 90.2621 30.4717 88.4152 29.9243 86.676C28.0731 80.7697 26.3181 74.8341 24.66 68.8712L21.7358 58.7703C21.1822 56.8788 20.4398 54.5762 20 52.6866Z" fill="#36443F"/>
<path d="M20 52.6866C20.8071 52.9614 22.3611 54.0777 23.1066 54.5559C30.6291 59.3813 37.3215 65.3969 44.056 71.2398C44.9908 72.0508 45.875 73.3723 46.6595 74.3597C47.6156 75.563 48.5539 76.8155 49.4905 78.0397C50.9493 79.9724 52.3749 81.9297 53.7667 83.9111C54.2692 84.6211 55.8211 86.7468 56.1374 87.3878C57.1676 89.4776 58.4278 92.0435 59.3258 94.2059C60.5196 97.0811 62.1726 100.544 63.1937 103.431C63.9535 105.58 64.829 108.953 65.4118 111.212C66.3071 114.684 67.4868 118.708 68.2148 122.196C68.9441 125.69 69.5788 129.988 70.1154 133.516C70.592 136.577 71.0153 139.647 71.3848 142.723C71.5252 143.903 71.7919 145.799 71.8223 146.945C70.8708 146.995 68.7593 146.862 67.7269 146.792C66.1771 146.688 61.541 121.868 54.4165 107.189C47.2958 92.5191 31.5514 72.2489 31.5514 72.2489L21.7358 58.7703C21.1822 56.8788 20.4398 54.5762 20 52.6866Z" fill="#26302E"/>
<path d="M126.752 97.0417C126.696 97.7275 122.146 107.11 121.526 108.472C120.088 111.628 118.774 114.877 117.243 117.987C115.735 121.051 114.061 124.054 112.472 127.078C111.68 128.585 110.773 130.752 109.782 132.057C108.587 133.627 99.978 143.886 98.8367 144.532C97.3601 145.368 94.8938 145.673 93.1894 145.921C93.1357 145.387 96.096 139.604 96.5129 138.736C100.252 130.953 104.678 123.521 109.27 116.218C109.631 115.643 110.807 114.435 111.307 113.874L114.827 109.925C118.614 105.7 122.759 101.074 126.752 97.0417Z" fill="#2E3F38"/>
<path d="M28.1882 108.148C28.7653 108.46 31.0367 110.26 31.6607 110.744C35.1342 113.439 38.5316 116.231 41.8488 119.116C42.9575 120.077 44.8838 121.652 45.8017 122.647C46.7092 123.63 48.0502 125.48 48.9146 126.585C52.7866 131.536 56.1237 136.871 59.1657 142.365C59.6129 143.173 60.9409 145.448 61.195 146.247C60.1549 146.336 55.1523 145.375 54.4426 144.639C52.1601 142.273 50.0819 139.602 47.8351 137.184C45.5796 134.756 43.7466 131.74 41.8768 128.991C38.9241 124.68 36.0249 120.331 33.1799 115.947L29.8281 110.775C29.3411 110.019 28.5739 108.908 28.1882 108.148Z" fill="#2E3F38"/>
</g>
<mask id="mask0_1_45" style="mask-type:alpha" maskUnits="userSpaceOnUse" x="20" y="20" width="107" height="127">
<path d="M60.3956 20C60.9566 20.4557 62.3867 22.2979 62.8757 22.9154C66.0804 26.9939 69.1948 31.1422 72.2168 35.3576C74.0188 37.8553 75.9849 40.238 77.1737 43.0695C77.6372 44.1745 78.1805 45.2995 78.679 46.3933C80.5483 50.475 82.3835 54.5723 84.1828 58.685C85.1905 60.9384 86.174 63.2021 87.1342 65.4758C87.509 66.361 88.2594 68.0499 88.4593 68.8997C88.5803 69.4137 88.6628 71.3929 88.6969 72.0068C88.8233 74.361 88.9353 76.716 89.0331 79.0715C89.1415 81.3414 89.3047 84.0867 89.2195 86.3254C89.2106 86.554 87.2095 90.6816 86.9683 91.1962C85.7724 93.7594 84.5988 96.3334 83.4468 98.9181C82.7968 100.366 82.1271 101.837 81.5067 103.298C81.2251 103.957 81.001 105.034 80.8136 105.765L79.7495 109.88C79.0869 112.432 78.4486 114.99 77.8345 117.554C77.6408 118.352 77.449 119.152 77.2508 119.949C76.7201 122.093 76.4924 124.317 76.2001 126.507C75.7563 129.825 75.3412 133.147 74.9548 136.471C74.7764 139.191 74.3783 142.014 74.1416 144.734C74.0807 145.431 74.3398 147.552 72.9645 146.865C72.6686 146.716 72.5817 142.302 72.4275 141.753C71.5905 133.59 70.7336 125.585 68.748 117.61C68.1794 115.256 67.5934 112.908 66.9898 110.563C66.3472 108.08 65.6566 104.891 64.7581 102.518C63.4534 99.0705 61.7784 95.6377 60.3998 92.212C59.7129 90.5059 58.7933 88.8518 58.1903 87.1098C57.961 86.4078 57.6595 83.2234 57.5534 82.2775C57.3139 80.1854 57.101 78.09 56.9147 75.9921C56.7982 74.7067 56.6186 73.2813 56.6606 72.0036C56.7634 68.878 56.9596 65.7469 57.161 62.627C57.5398 56.6831 57.9556 50.7415 58.4086 44.8028C58.7963 39.2219 59.2127 33.6432 59.6581 28.0667C59.8538 25.6728 60.0282 22.2606 60.3956 20Z" fill="#232C2B"/>
<path d="M72.9645 146.865C72.4755 146.247 82.1977 70.931 60.3956 20C60.0282 22.2606 59.8538 25.6728 59.6581 28.0667C59.2127 33.6432 58.7963 39.2219 58.4086 44.8028C57.9556 50.7415 57.5398 56.6831 57.161 62.627C56.9596 65.7469 56.7634 68.878 56.6606 72.0036C56.6186 73.2813 56.7982 74.7067 56.9147 75.9921C57.101 78.09 57.3139 80.1854 57.5534 82.2775C57.6595 83.2234 57.961 86.4078 58.1903 87.1098C58.7933 88.8518 59.7129 90.5059 60.3998 92.212C61.7784 95.6377 63.4534 99.0705 64.7581 102.518C65.6566 104.891 66.3472 108.08 66.9898 110.563C67.5934 112.908 68.1794 115.257 68.748 117.61C70.7336 125.585 71.5905 133.59 72.4275 141.753C72.5817 142.302 72.6686 146.716 72.9645 146.865Z" fill="#32453E"/>
<path d="M74.3643 91.1369C74.4034 91.1217 74.5108 48.0164 60.3957 20C60.0283 22.2606 59.8539 25.6728 59.6582 28.0667C59.2129 33.6432 58.7964 39.2219 58.4088 44.8028C57.9557 50.7415 57.1611 62.627 57.1611 62.627L66.238 75.2504C66.238 75.2504 74.4156 91.0756 74.3643 91.1369Z" fill="#44514D"/>
<path d="M121.72 52.7862L121.837 52.7302C121.92 53.0622 120.311 63.5074 120.111 64.9087C119.351 70.288 118.551 75.6617 117.712 81.0293C117.293 83.7453 116.877 86.5353 116.39 89.2419C116.262 89.9547 115.676 91.607 115.426 92.3807L113.712 97.6747C112.691 100.912 111.619 104.133 110.493 107.337C110.085 108.504 109.553 110.358 109.028 111.411C107.068 115.353 105.082 119.296 103.061 123.208C101.764 125.524 100.351 127.815 99.1738 130.196C96.9486 134.695 94.865 139.273 92.8398 143.867C92.5663 144.487 92.1315 145.586 91.7442 146.11C89.3146 146.397 86.8769 146.606 84.4339 146.737C82.9089 146.833 81.1319 146.965 79.624 146.942C78.229 146.971 76.2853 147.041 74.9199 146.928C75.5743 140.889 76.3848 134.869 77.3495 128.873C77.6238 127.137 77.8686 125.38 78.177 123.637C78.9076 119.496 80.1476 115.366 81.201 111.292C81.6878 109.409 82.1639 107.456 82.6982 105.607C83.3787 103.257 84.6464 100.7 85.6523 98.4448C89.2545 90.3169 93.4171 82.4498 98.1105 74.8999C98.947 73.5372 100.463 70.9805 101.395 69.7657C102.036 68.9293 104.493 66.7368 105.401 65.9067C107.349 64.1442 109.323 62.4089 111.321 60.7017C112.196 59.9401 113.593 58.5321 114.472 57.9434C116.692 56.4585 119.407 53.98 121.72 52.7862Z" fill="#25332D"/>
<path d="M74.9199 146.928C75.5743 140.889 76.3848 134.869 77.3495 128.873C77.6238 127.137 77.8686 125.38 78.177 123.636C78.9076 119.496 80.1476 115.366 81.201 111.292C81.6878 109.408 82.1639 107.456 82.6982 105.607C83.3787 103.256 84.6464 100.7 85.6523 98.4448C89.2545 90.3168 93.4171 82.4497 98.1105 74.8998C98.947 73.5372 100.463 70.9805 101.395 69.7657C102.036 68.9293 104.493 66.7367 105.401 65.9066C107.349 64.1441 109.323 62.4089 111.321 60.7016C112.196 59.9401 113.593 58.532 114.472 57.9434C116.692 56.4584 119.407 53.98 121.72 52.7861C121.445 53.4168 120.614 54.7088 120.232 55.3338C119.392 56.6904 118.577 58.0623 117.789 59.4487C114.909 64.5126 112.156 69.6484 109.536 74.8513C105.339 83.0576 101.397 91.3909 97.716 99.8407C91.911 112.922 86.6447 126.314 82.5404 140.031C82.3727 140.592 82.1656 141.279 82.0608 141.855C81.7443 143.595 81.062 145.179 80.6254 146.885C80.3018 146.884 79.9162 146.849 79.624 146.942C78.229 146.971 76.2853 147.041 74.9199 146.928Z" fill="#4A5E53"/>
<path d="M20 52.6866C20.8071 52.9614 22.3611 54.0777 23.1066 54.5559C30.6291 59.3813 37.3215 65.3969 44.056 71.2398C44.9908 72.0508 45.875 73.3723 46.6595 74.3597C47.6156 75.563 48.5539 76.8155 49.4905 78.0397C50.9493 79.9724 52.3749 81.9297 53.7667 83.9111C54.2692 84.6211 55.8211 86.7468 56.1374 87.3878C57.1676 89.4776 58.4278 92.0435 59.3258 94.2059C60.5196 97.0811 62.1726 100.544 63.1937 103.431C63.9535 105.58 64.829 108.953 65.4118 111.212C66.3071 114.684 67.4868 118.708 68.2148 122.196C68.9441 125.69 69.5788 129.988 70.1154 133.516C70.592 136.577 71.0153 139.647 71.3848 142.723C71.5252 143.903 71.7919 145.799 71.8223 146.945C70.8708 146.995 68.7593 146.862 67.7269 146.792C66.1771 146.688 63.8598 146.628 62.3712 146.376C61.6316 145.067 60.9318 143.386 60.2016 142.026C58.2403 138.374 56.166 134.355 53.8936 130.912L43.7898 115.911C42.7748 114.435 41.7503 112.966 40.716 111.503C40.2684 110.866 39.112 109.294 38.8154 108.67C37.5599 106.032 36.2977 103.215 35.1635 100.528L32.8798 95.1052C32.5005 94.2185 31.8362 92.8289 31.5514 91.979C30.9757 90.2621 30.4717 88.4152 29.9243 86.676C28.0731 80.7697 26.3181 74.8341 24.66 68.8712L21.7358 58.7703C21.1822 56.8788 20.4398 54.5762 20 52.6866Z" fill="#36443F"/>
<path d="M20 52.6866C20.8071 52.9614 22.3611 54.0777 23.1066 54.5559C30.6291 59.3813 37.3215 65.3969 44.056 71.2398C44.9908 72.0508 45.875 73.3723 46.6595 74.3597C47.6156 75.563 48.5539 76.8155 49.4905 78.0397C50.9493 79.9724 52.3749 81.9297 53.7667 83.9111C54.2692 84.6211 55.8211 86.7468 56.1374 87.3878C57.1676 89.4776 58.4278 92.0435 59.3258 94.2059C60.5196 97.0811 62.1726 100.544 63.1937 103.431C63.9535 105.58 64.829 108.953 65.4118 111.212C66.3071 114.684 67.4868 118.708 68.2148 122.196C68.9441 125.69 69.5788 129.988 70.1154 133.516C70.592 136.577 71.0153 139.647 71.3848 142.723C71.5252 143.903 71.7919 145.799 71.8223 146.945C70.8708 146.995 68.7593 146.862 67.7269 146.792C66.1771 146.688 61.541 121.868 54.4165 107.189C47.2958 92.5191 31.5514 72.2489 31.5514 72.2489L21.7358 58.7703C21.1822 56.8788 20.4398 54.5762 20 52.6866Z" fill="#26302E"/>
<path d="M126.752 97.0417C126.696 97.7275 122.146 107.11 121.526 108.472C120.088 111.628 118.774 114.877 117.243 117.987C115.735 121.051 114.061 124.054 112.472 127.078C111.68 128.585 110.773 130.752 109.782 132.057C108.587 133.627 99.978 143.886 98.8367 144.532C97.3601 145.368 94.8938 145.673 93.1894 145.921C93.1357 145.387 96.096 139.604 96.5129 138.736C100.252 130.953 104.678 123.521 109.27 116.218C109.631 115.643 110.807 114.435 111.307 113.874L114.827 109.925C118.614 105.7 122.759 101.074 126.752 97.0417Z" fill="#2E3F38"/>
<path d="M28.1882 108.148C28.7653 108.46 31.0367 110.26 31.6607 110.744C35.1342 113.439 38.5316 116.231 41.8488 119.116C42.9575 120.077 44.8838 121.652 45.8017 122.647C46.7092 123.63 48.0502 125.48 48.9146 126.585C52.7866 131.536 56.1237 136.871 59.1657 142.365C59.6129 143.173 60.9409 145.448 61.195 146.247C60.1549 146.336 55.1523 145.375 54.4426 144.639C52.1601 142.273 50.0819 139.602 47.8351 137.184C45.5796 134.756 43.7466 131.74 41.8768 128.991C38.9241 124.68 36.0249 120.331 33.1799 115.947L29.8281 110.775C29.3411 110.019 28.5739 108.908 28.1882 108.148Z" fill="#2E3F38"/>
</mask>
<g mask="url(#mask0_1_45)">
<rect x="14.3322" y="20.0503" width="116.989" height="128.703" fill="url(#paint0_radial_1_45)" fill-opacity="0.53"/>
</g>
<g clip-path="url(#clip0_1_45)">
<path d="M527.582 105.918C527.582 112.21 526.365 117.705 523.932 122.403C521.5 127.017 518.06 130.624 513.614 133.225C509.252 135.742 504.092 137 498.136 137C492.18 137 486.978 135.742 482.532 133.225C478.086 130.624 474.646 127.017 472.214 122.403C469.781 117.705 468.564 112.21 468.564 105.918C468.564 99.5425 469.781 94.0477 472.214 89.4336C474.73 84.7357 478.212 81.1284 482.658 78.6117C487.104 76.0949 492.264 74.8365 498.136 74.8365C504.008 74.8365 509.126 76.1369 513.488 78.7375C517.934 81.2542 521.374 84.8196 523.807 89.4336C526.323 94.0477 527.582 99.5425 527.582 105.918ZM498.136 84.7777C492.935 84.7777 488.824 86.6652 485.804 90.4403C482.784 94.1316 481.274 99.2909 481.274 105.918C481.274 112.546 482.742 117.705 485.678 121.396C488.698 125.087 492.851 126.933 498.136 126.933C503.421 126.933 507.532 125.087 510.468 121.396C513.488 117.621 514.998 112.462 514.998 105.918C514.998 99.2909 513.488 94.1316 510.468 90.4403C507.532 86.6652 503.421 84.7777 498.136 84.7777Z" fill="#1A1814"/>
<path d="M454.012 96.6064V109.19H441.68V97.2355C441.68 92.9571 440.464 89.8112 438.031 87.7978C435.598 85.7844 432.368 84.7777 428.342 84.7777C425.322 84.7777 422.595 85.1552 420.162 85.9102C417.813 86.6652 415.758 87.5461 413.996 88.5528V109.19H401.664V88.4269C401.664 86.5813 402.042 85.0713 402.797 83.8968C403.636 82.6384 404.894 81.464 406.572 80.3734C408.921 78.9472 411.983 77.6889 415.758 76.5983C419.533 75.4238 423.728 74.8365 428.342 74.8365C436.395 74.8365 442.687 76.6402 447.217 80.2475C451.747 83.8549 454.012 89.3078 454.012 96.6064ZM401.664 102.647H413.996V134.987C413.493 135.154 412.738 135.364 411.731 135.616C410.724 135.867 409.634 135.993 408.459 135.993C406.194 135.993 404.475 135.574 403.3 134.735C402.209 133.812 401.664 132.344 401.664 130.331V102.647ZM441.68 102.647H454.012V134.987C453.509 135.154 452.712 135.364 451.621 135.616C450.615 135.867 449.524 135.993 448.35 135.993C446.085 135.993 444.407 135.574 443.316 134.735C442.226 133.812 441.68 132.344 441.68 130.331V102.647Z" fill="#1A1814"/>
<path d="M359.658 127.311C362.762 127.311 365.405 127.017 367.586 126.43C369.767 125.759 371.361 125.087 372.368 124.416V107.806L358.022 109.316C354.079 109.568 351.101 110.448 349.088 111.958C347.158 113.385 346.194 115.482 346.194 118.25C346.194 121.019 347.284 123.242 349.465 124.92C351.73 126.514 355.128 127.311 359.658 127.311ZM359.407 74.8365C367.041 74.8365 373.123 76.5144 377.653 79.87C382.183 83.2257 384.448 88.5108 384.448 95.7255V125.171C384.448 127.101 384.029 128.611 383.19 129.701C382.351 130.708 381.218 131.673 379.792 132.596C377.611 133.77 374.801 134.777 371.361 135.616C367.922 136.539 364.021 137 359.658 137C351.605 137 345.313 135.448 340.783 132.344C336.253 129.156 333.987 124.542 333.987 118.502C333.987 112.965 335.791 108.729 339.398 105.792C343.006 102.856 348.123 101.053 354.751 100.381L372.368 98.6197V95.7255C372.368 91.8665 371.109 89.0561 368.593 87.2944C366.16 85.5327 362.846 84.6518 358.652 84.6518C355.296 84.6518 352.024 85.1132 348.836 86.036C345.732 86.9588 342.964 88.0494 340.531 89.3078C339.776 88.6367 339.105 87.8397 338.518 86.9169C337.93 85.9941 337.637 85.0293 337.637 84.0226C337.637 81.422 339.063 79.4925 341.915 78.2341C344.18 77.1436 346.823 76.3046 349.843 75.7174C352.947 75.1302 356.135 74.8365 359.407 74.8365Z" fill="#1A1814"/>
<path d="M306.818 102.017L319.15 103.276V134.987C318.647 135.154 317.85 135.364 316.76 135.616C315.753 135.867 314.662 135.993 313.488 135.993C311.223 135.993 309.545 135.574 308.454 134.735C307.364 133.812 306.818 132.344 306.818 130.331V102.017ZM319.15 109.316L306.818 108.183V53.5701C307.322 53.4023 308.077 53.2345 309.084 53.0667C310.174 52.815 311.307 52.6892 312.481 52.6892C314.746 52.6892 316.424 53.1087 317.515 53.9476C318.605 54.7865 319.15 56.2546 319.15 58.3519V109.316Z" fill="#1A1814"/>
<path d="M244.732 112.965L244.228 103.779L280.344 98.6197C280.092 94.593 278.666 91.2373 276.065 88.5528C273.464 85.8683 269.857 84.526 265.243 84.526C260.377 84.526 256.351 86.2458 253.163 89.6853C250.059 93.041 248.465 97.9067 248.381 104.282L248.507 108.687C249.178 114.811 251.317 119.425 254.924 122.529C258.616 125.549 263.481 127.059 269.522 127.059C273.045 127.059 276.275 126.514 279.211 125.423C282.147 124.332 284.454 123.116 286.132 121.774C287.139 122.445 287.936 123.242 288.523 124.165C289.194 125.087 289.53 126.136 289.53 127.311C289.53 129.156 288.607 130.834 286.761 132.344C284.916 133.77 282.441 134.903 279.337 135.742C276.233 136.581 272.709 137 268.767 137C262.307 137 256.644 135.826 251.779 133.477C246.997 131.044 243.264 127.478 240.579 122.78C237.895 118.083 236.552 112.294 236.552 105.415C236.552 100.465 237.265 96.103 238.691 92.3279C240.202 88.5528 242.257 85.3649 244.857 82.7643C247.458 80.1637 250.478 78.1922 253.918 76.8499C257.441 75.5077 261.216 74.8365 265.243 74.8365C270.528 74.8365 275.184 75.9271 279.211 78.1083C283.238 80.2895 286.384 83.3515 288.649 87.2944C290.914 91.2373 292.046 95.7255 292.046 100.759C292.046 102.856 291.543 104.366 290.536 105.289C289.614 106.212 288.229 106.799 286.384 107.051L244.732 112.965Z" fill="#1A1814"/>
<path d="M209.537 124.039V82.8901L221.743 82.7643V124.92C221.743 126.597 221.365 127.982 220.61 129.072C219.939 130.163 218.807 131.17 217.213 132.092C215.367 133.267 212.808 134.357 209.537 135.364C206.265 136.455 202.532 137 198.337 137C192.045 137 186.508 135.909 181.727 133.728C177.029 131.547 173.338 128.191 170.653 123.661C168.052 119.047 166.752 113.217 166.752 106.17C166.752 98.7875 168.052 92.8312 170.653 88.3011C173.338 83.6871 176.903 80.2895 181.349 78.1083C185.795 75.9271 190.703 74.8365 196.072 74.8365C199.344 74.8365 202.364 75.256 205.132 76.0949C207.901 76.9338 210.082 77.9824 211.676 79.2408V90.1886C210.25 88.6786 208.32 87.4202 205.887 86.4135C203.538 85.3229 200.77 84.7776 197.582 84.7776C194.226 84.7776 191.164 85.4907 188.396 86.9169C185.628 88.343 183.404 90.65 181.727 93.8379C180.133 96.9419 179.336 101.095 179.336 106.296C179.336 113.51 181.056 118.754 184.495 122.025C187.935 125.297 192.507 126.933 198.211 126.933C200.896 126.933 203.119 126.639 204.881 126.052C206.642 125.465 208.194 124.794 209.537 124.039ZM221.743 85.5327L209.411 85.6585V53.5701C209.998 53.4023 210.795 53.2345 211.802 53.0667C212.892 52.815 213.983 52.6892 215.073 52.6892C217.422 52.6892 219.1 53.1087 220.107 53.9476C221.198 54.7865 221.743 56.2546 221.743 58.3519V85.5327Z" fill="#1A1814"/>
</g>
<defs>
<filter id="filter0_n_1_45" x="20" y="20" width="106.752" height="127" filterUnits="userSpaceOnUse" color-interpolation-filters="sRGB">
<feFlood flood-opacity="0" result="BackgroundImageFix"/>
<feBlend mode="normal" in="SourceGraphic" in2="BackgroundImageFix" result="shape"/>
<feTurbulence type="fractalNoise" baseFrequency="1.5628305673599243 1.5628305673599243" stitchTiles="stitch" numOctaves="3" result="noise" seed="9169" />
<feColorMatrix in="noise" type="luminanceToAlpha" result="alphaNoise" />
<feComponentTransfer in="alphaNoise" result="coloredNoise1">
<feFuncA type="discrete" tableValues="0 0 0 0 0 0 0 0 0 0 0 0 0 0 0 0 1 1 1 1 1 1 1 1 1 1 1 1 1 1 1 1 1 1 0 0 0 0 0 0 0 0 0 0 0 0 0 0 0 0 0 0 0 0 0 0 0 0 0 0 0 0 0 0 0 0 0 0 0 0 0 0 0 0 0 0 0 0 0 0 0 0 0 0 0 0 0 0 0 0 0 0 0 0 0 0 0 0 0 0 "/>
</feComponentTransfer>
<feComposite operator="in" in2="shape" in="coloredNoise1" result="noise1Clipped" />
<feFlood flood-color="rgba(65, 105, 88, 0.44)" result="color1Flood" />
<feComposite operator="in" in2="noise1Clipped" in="color1Flood" result="color1" />
<feMerge result="effect1_noise_1_45">
<feMergeNode in="shape" />
<feMergeNode in="color1" />
</feMerge>
</filter>
<radialGradient id="paint0_radial_1_45" cx="0" cy="0" r="1" gradientUnits="userSpaceOnUse" gradientTransform="translate(78.1711 138.65) rotate(-89.679) scale(52.2726 83.9762)">
<stop offset="0.000404775" stop-color="#00C26F" stop-opacity="0.5"/>
<stop offset="1" stop-color="#416958" stop-opacity="0"/>
</radialGradient>
<clipPath id="clip0_1_45">
<rect width="360.83" height="94.3108" fill="white" transform="translate(166.752 52.6892)"/>
</clipPath>
</defs>
</svg>
